<?xml version="1.0" encoding="UTF-8" standalone="no"?>
<svg
   xmlns:dc="http://purl.org/dc/elements/1.1/"
   xmlns:cc="http://creativecommons.org/ns#"
   xmlns:rdf="http://www.w3.org/1999/02/22-rdf-syntax-ns#"
   xmlns:svg="http://www.w3.org/2000/svg"
   xmlns="http://www.w3.org/2000/svg"
   xmlns:sodipodi="http://sodipodi.sourceforge.net/DTD/sodipodi-0.dtd"
   xmlns:inkscape="http://www.inkscape.org/namespaces/inkscape"
   width="1088" height="687.962" viewBox="0 0 544 687.962"
   id="svg2"
   version="1.1"
   inkscape:version="0.91 r13725"
   sodipodi:docname="Flag_of_Côte_d'Ivoire.svg">
  <metadata
     id="metadata14">
    <rdf:RDF>
      <cc:Work
         rdf:about="">
        <dc:format>image/svg+xml</dc:format>
        <dc:type
           rdf:resource="http://purl.org/dc/dcmitype/StillImage" />
        <dc:title></dc:title>
      </cc:Work>
    </rdf:RDF>
  </metadata>
  <defs
     id="defs12" />
  <sodipodi:namedview
     pagecolor="#ffffff"
     bordercolor="#666666"
     borderopacity="1"
     objecttolerance="10"
     gridtolerance="10"
     guidetolerance="10"
     inkscape:pageopacity="0"
     inkscape:pageshadow="2"
     inkscape:window-width="1600"
     inkscape:window-height="837"
     id="namedview10"
     showgrid="false"
     fit-margin-top="0"
     fit-margin-left="0"
     fit-margin-right="0"
     fit-margin-bottom="0"
     inkscape:zoom="0.73709606"
     inkscape:cx="387.25154"
     inkscape:cy="268.65088"
     inkscape:window-x="-8"
     inkscape:window-y="-8"
     inkscape:window-maximized="1"
     inkscape:current-layer="svg2" />
  <path
     style="fill:#ffffff;stroke:#009e60;stroke-width:1.20000005;stroke-miterlimit:4;stroke-dasharray:none;stroke-opacity:1"
     d="m 230.28125,0.63436179 -0.002,0.01 -1.81836,0.67187001 -0.81055,0.55469 -0.64258,0.10156 -0.11914,0.0547 -1.92969,0.8457 -0.83398,0.66797 -0.55273,0.12891 -2.53516,1.13867 -0.32617,-1.14453 -0.67774,-0.3125 -1.55664,-0.0937 -0.58398,-0.23828 -0.80664,0.23437 -0.59375,-0.0996 -0.41407,0.22266 -1.52734,0.83789 -0.30859,0.58594 -0.18946,1.71093 0.11524,5.1640702 1.18555,0.0898 0.76953,0.49219 0.3789,0.59961 0.008,0.45703 0.002,0.18359 -0.44922,0.86133 -1.38477,0.8418 -1.60546,1.72851 -1.2461,0.70899 -1.74023,0.0625 -2.83399,-1.35352 -0.86718,0.0762 -0.13477,0.11133 -0.33398,0.17188 -0.86524,-0.19727 -2.63086,-1.00391 -0.49609,-0.30859 -0.38281,-0.41406 -0.39454,-0.87891 -0.56445,-0.2832 -0.65039,-0.69727 -0.8125,-0.44726 -1.11914,-0.22852 0,581.757808 0.24805,-0.0957 0.22851,-0.26953 3.14063,-0.96289 4.08398,-0.56055 0.4961,-0.17773 -0.35352,-0.61914 0.38477,-0.41016 0.24414,0.43945 0.0898,0.66016 3.92578,-0.8125 0.86133,-0.36133 0.38477,-0.0234 0.26757,-0.0156 0.67969,-0.56836 -0.4043,-0.34375 0.0273,-0.27148 0.68164,-0.65625 2.73633,-0.57422 0.29101,-0.29492 0.90235,-0.12696 0.25195,-0.29492 2.3457,-0.36914 0.52344,-0.31641 0.90039,-0.041 1.49609,-0.69532 0.69922,-0.49414 1.21875,-0.19726 0.20313,-0.19336 0.20703,-0.19336 2.64258,-0.45508 0.61328,-0.43164 1.10547,-0.37695 1.91601,-0.42774 0.57227,-0.12695 1.03906,-0.53711 0.32031,-0.5918 0.76953,-0.20117 0.31641,-0.0859 0.67578,-0.15429 1.41992,-0.19336 1.95118,-1.21875 -0.19922,-0.3418 1.37695,-0.42187 0.92578,-0.52539 0.72461,-0.14844 0.54688,-0.54102 0.60937,-0.043 0.50195,-0.31445 0.67383,-0.11133 4.46094,-2.17578 0.16016,-0.29492 -0.15039,-0.45898 0.45507,-0.56641 -0.51953,-0.0488 -1.10156,-0.5332 -0.76953,-0.18555 -0.23438,-0.26758 -0.32617,0.0703 -0.66601,-0.93555 -0.97852,-1.87891 -0.0195,-0.3457 1.08789,0.50976 1.76953,-0.27929 1.15234,0.32812 0.57813,0.32422 0.47266,0.7793 0.2207,0.78125 -0.48828,1.22656 0.27148,0.0684 1.44727,-0.44141 2.12109,-0.16406 0.47461,0.1836 0.61133,-0.084 0.8125,-0.51953 0.63281,0.0937 0.26953,-0.084 0.47852,-0.48829 1.21094,-0.2539 0.55859,-0.2793 0.0918,-0.41406 -0.0977,-0.47656 3.47461,-0.95118 0.50977,-0.14062 1.43554,-0.95117 3.03906,-0.78711 3.125,-1.30664 0.42774,-0.082 7.66406,-1.48243 4.19727,-0.43945 5.42578,-0.5664 2.57422,-0.38868 2.0664,-0.57226 1.01758,0.0625 0.56055,-0.48438 0.43554,-0.12304 0.24024,-0.0664 3.92578,-0.26563 1.03516,-0.19336 0.26758,-0.18359 0.36718,0.10938 0.78516,-0.14258 0.20312,-0.30078 2.43164,-0.41016 1.98438,-0.0645 7.2168,-1.06836 0.6582,-0.0937 2.36133,-0.34961 6.91992,-0.79492 3.04687,-0.26368 4.64844,-0.39648 7.73828,-0.30078 10.74219,-0.41406 1.6543,-0.13477 3.68945,-0.30078 0.0156,-0.01 c -0.13991,-0.2336 -0.25575,-0.27844 -0.64844,-0.37304 -0.39425,-0.095 -0.79662,-0.13593 -0.89649,-0.61133 -0.0936,-0.4447 0.0868,-0.57749 0.12891,-0.99609 0.0499,-0.4999 -0.0308,-0.68517 -0.38867,-1.04297 -0.43898,-0.4379 0.1436,-1.71455 -0.53516,-1.90235 -0.33807,-0.094 -0.79074,-0.11382 -1.0664,-0.32812 -0.35108,-0.2736 -0.68923,-0.46922 -1.09961,-0.63672 -0.32559,-0.1331 -0.75927,0.009 -1.0625,0.13281 -0.36824,0.1503 -0.74845,0.0349 -1.13282,0.20508 -0.31988,0.142 -0.51574,0.48293 -0.69726,0.76953 -0.26995,0.4265 -0.69968,0.16608 -1.03516,0.36328 -0.27046,0.1586 -0.31895,0.64795 -0.54883,0.83985 -0.28191,0.2361 -0.74042,0.17124 -1.06445,0.11914 -0.73649,-0.117 -1.46726,-0.27998 -2.18555,-0.48438 -0.47695,-0.1353 -0.57943,-0.60086 -0.96484,-0.85156 -0.38957,-0.2533 -0.76283,-0.57029 -1.19141,-0.74609 -0.44054,-0.1799 -0.69634,-0.49137 -1.07031,-0.75977 -0.3672,-0.2632 -0.82909,-0.46465 -1.25195,-0.62695 -0.38125,-0.1451 -0.87959,-0.31836 -1.28321,-0.31836 -0.43846,0 -0.89485,0.20938 -1.32031,0.33008 -0.45303,0.129 -0.9121,0.28024 -1.375,0.15234 -0.53729,-0.1483 -0.8079,-0.21187 -1.35351,-0.0723 0.19921,0.4697 0.24508,0.48963 0.74804,0.61133 0.36148,0.088 0.75517,0.13645 1.10157,0.27735 0.3464,0.1425 0.71484,0.29553 0.71484,0.74023 0,0.2559 -0.15494,0.98115 0.0625,1.06445 0.44574,0.1716 0.54484,-0.0617 0.96094,-0.23437 0.44002,-0.1821 0.68181,-0.30155 1.08593,-0.0312 0.57005,0.3819 0.1033,1.67988 -0.53124,1.77148 -0.8223,0.1175 -1.37851,-0.0855 -2.12696,-0.41601 -0.17632,-0.078 -0.78266,-0.46393 -0.95898,-0.39063 -0.38177,0.1597 -0.72346,0.40869 -1.11719,0.52149 -0.76042,0.2195 -1.29447,-0.39258 -2.00391,-0.39258 -0.34588,0 -0.80384,0.074 -1.13672,0 -0.38853,-0.087 -0.62227,-0.39072 -0.90624,-0.63672 -0.68969,-0.5945 -1.45258,-0.39211 -1.8125,0.42969 -0.13939,0.3172 -0.0426,0.75189 0,1.08789 0.0437,0.3464 -0.81587,0.38329 -0.99219,0.40039 -0.74793,0.072 -1.41991,0.37638 -2.16992,0.48828 -0.33496,0.05 -0.6601,-0.01 -0.9961,0.0645 -0.57109,0.1249 -0.21463,0.54167 0.13281,0.73047 1.41785,0.7666 2.80475,-0.1754 4.27149,0.0332 0.35108,0.05 0.73805,0.094 1.04492,0.28125 0.1654,0.1004 0.29017,0.19312 0.43164,0.32422 0.23718,0.2195 0.28434,-0.0684 0.16211,0.23633 -0.24966,0.6215 -1.65064,0.32617 -2.20508,0.32617 -1.20356,0 -2.53067,0.31836 -3.72851,0.31836 -1.06989,0 -2.64989,0.89378 -3.51172,0.0801 -0.2299,-0.2174 -0.11874,-0.54001 -0.30078,-0.72461 -0.26266,-0.2668 -0.42704,-0.36762 -0.77344,-0.51172 -0.22573,-0.095 -0.54344,-0.0619 -0.79102,-0.0859 -0.4187,-0.042 -0.52316,-0.20566 -0.89453,-0.34766 -0.29802,-0.1139 -0.5792,-0.2023 -0.88867,-0.2793 -0.2429,-0.06 -0.40579,-0.38168 -0.54883,-0.58398 -0.32819,-0.4609 -0.28301,-1.30573 -0.14258,-1.83203 0.20077,0.3354 0.61409,1.00329 1.00782,0.46289 0.11078,-0.1524 0.14142,-0.48183 0.16015,-0.67383 0.0421,-0.4306 0.0758,-0.4554 0.41602,-0.7207 0.0754,0.5295 0.18205,1.0033 0.38281,1.5 0.0879,0.2153 0.32751,0.15894 0.54492,0.18554 0.42753,0.051 0.44538,0.0192 0.58789,0.42578 0.0749,0.2132 0.1211,0.4499 0.2168,0.6543 0.18361,0.389 0.28974,0.40777 0.68555,0.44727 0.65951,0.066 0.75015,0.57214 1.05859,1.06054 0.4525,0.7178 0.65942,-0.30235 0.69531,-0.66015 0.0192,-0.1898 -0.0679,-0.55478 0.0137,-0.70508 0.13055,-0.2408 0.40782,-0.22299 0.51757,-0.52149 0.19452,-0.5295 0.0809,-0.92393 0.084,-1.45703 0.004,-0.5758 0.26392,-1.02043 0.63476,-1.42773 0.0754,0.3532 -0.0115,2.14929 0.51954,2.18359 0.24705,0.016 0.57749,-0.53952 0.6914,-0.69922 0.22105,-0.31 0.42623,-0.59593 0.8418,-0.61523 0.23926,-0.011 0.93307,0.0366 1.11719,-0.11524 0.22989,-0.1888 0.20393,-0.76469 0.41406,-0.99609 0.27462,-0.3027 0.53452,-0.5658 0.64062,-0.9668 0.1342,-0.5077 -0.34637,-0.54267 -0.74218,-0.45117 -0.33028,0.075 -0.64834,0.25182 -0.96094,0.38282 -0.45822,0.19299 -0.55311,0.27385 -1.01758,0.0684 -0.14928,-0.067 -0.16957,-0.32212 -0.29492,-0.41992 -0.0973,-0.075 -0.36462,-0.16263 -0.48633,-0.17773 -0.17684,-0.022 -0.39439,0.0377 -0.57227,0.0547 -0.0723,0.01 -0.17181,-0.37192 -0.125,-0.44532 0.24862,-0.387 0.42707,-0.44797 0.89258,-0.32617 0.19608,0.05 0.36059,0.1747 0.48438,0 0.19244,-0.2715 0.2242,-0.27184 0.11914,-0.58594 -0.12587,-0.3781 -0.52946,-0.45155 -0.45508,-0.93945 0.0416,-0.2736 0.32808,-0.71803 0.58398,-0.83203 0.32975,-0.1451 0.60772,-0.26928 0.91407,0.041 0.27827,0.28039 0.54938,0.62515 0.95508,0.46874 0.38177,-0.1462 0.37638,-0.42368 0.8164,-0.52148 0.4213,-0.094 0.29033,0.59904 0.54102,0.71094 0.42702,0.1893 0.59384,0.0927 1.03906,0.13476 0.1524,0.014 0.43911,-0.0154 0.57226,0.0566 0.15189,0.082 0.20855,0.3353 0.35938,0.4336 0.33132,0.2164 0.69941,0.26725 1.02344,0.47265 0.19505,0.1243 0.31428,0.22379 0.46875,0.39649 0.17996,0.1992 0.3352,0.0162 0.5625,-0.0918 0.26682,-0.129 0.37512,-0.52954 0.55664,-0.74804 0.10923,-0.131 0.71014,-0.63734 0.875,-0.52344 0.60179,0.4166 1.12834,1.02533 1.94336,0.89844 0.68396,-0.1076 1.29327,-0.51758 1.99804,-0.51758 0.82439,0 1.43742,0.0771 2.13282,0.55273 0.2871,0.1971 0.5427,0.41221 0.92187,0.37891 0.33652,-0.031 0.66686,-0.37891 0.9961,-0.37891 0.37813,0 0.78906,0.0184 0.78906,0.52149 0,0.4905 0.19322,0.64333 0.66601,0.77343 0.37812,0.1035 0.73548,0.14508 1.06836,0.35938 0.36461,0.2335 0.52363,0.48123 0.95117,0.64453 0.1706,0.065 0.76025,0.41946 0.91993,0.41016 0.29231,-0.017 0.604,-0.54707 0.86718,-0.66407 0.29231,-0.129 0.76658,-0.17222 0.98243,-0.39062 0.28294,-0.285 0.5581,-0.407 0.95703,-0.4668 0.73493,-0.1097 1.4702,-0.35089 2.14843,-0.65039 0.63975,-0.2846 1.32463,-0.5827 1.9961,-0.75 0.79371,-0.2004 1.49824,-0.0818 2.30078,-0.01 0.45615,0.044 1.83493,-0.0439 1.76367,0.58007 -0.0421,0.3656 -0.42872,0.47107 -0.66797,0.75977 -0.25018,0.3006 -0.16038,0.73169 -0.0215,1.05469 0.33443,0.7781 0.13796,1.40072 -0.28906,2.07421 -0.20025,0.3157 -0.37862,0.61818 -0.35157,1.01758 0.0343,0.505 0.31243,0.65354 0.73633,0.80274 0.76978,0.2715 1.39171,0.10891 2.17969,0.0703 0.42442,-0.02 0.76266,0.0257 1.16992,0.13281 0.27982,0.073 0.57844,0.68646 0.23828,0.81446 -0.34172,0.129 -0.66688,0.10547 -1.01172,0.20117 -0.1035,0.028 -0.49631,0.0736 -0.46875,0.1875 0.0312,0.1259 0.0577,0.20406 0.0977,0.25976 l 2.45508,-0.0801 8.61719,-0.75977 2.32421,-0.20508 4.7168,-0.15234 0.96289,-0.16407 1.31641,-0.2207 3.03906,-0.22656 0.39063,-0.0293 11.80859,-2.27734 1.08008,-0.20508 9.22461,-0.92383 0.43945,0 -10e-5,-3.6953 c -0.23163,0.009 -0.51207,-0.10131 -0.73047,-0.0527 -0.31104,0.07 -0.47101,0.37885 -0.60937,0.62695 -0.1113,0.1981 -0.55081,0.21737 -0.66211,0.043 -0.20493,-0.3198 -0.16992,-0.54784 -0.16993,-0.93164 -0.24029,0.1566 -0.62395,0.52148 -0.9121,0.52148 -0.39841,0 -0.7956,-0.0586 -1.19141,-0.0586 -0.52116,0 -1.7,0.27332 -1.88672,0.85742 -0.14252,0.4479 -0.20015,0.68707 0.35742,0.79687 0.35524,0.071 0.7449,0.17969 1.10742,0.17969 0.4135,0 0.78845,-0.0231 1.19727,-0.0801 0.50452,-0.072 0.6867,0.0102 0.95508,0.40039 -0.66887,0.1904 -1.30261,0.62754 -1.97461,0.76954 -0.68447,0.1446 -1.54267,0.39072 -2.17774,0.0488 -0.24393,-0.1311 -0.64785,-0.40503 -0.69726,-0.71093 -0.0759,-0.4722 -0.15183,-0.81153 -0.63086,-0.98633 -0.30011,-0.1087 -0.77115,0.11025 -1.0957,0.16015 -0.37761,0.059 -0.78359,-0.0431 -1.15235,-0.12304 -0.31988,-0.069 -0.66738,0.0312 -0.99609,0.0312 -0.42442,0 -0.79353,-0.11768 -1.20703,-0.20508 -0.34015,-0.071 -0.66623,-0.20074 -1.01367,-0.21484 -0.42078,-0.017 -0.72974,0.0862 -1.14063,0.14453 -0.88316,0.1265 -1.46466,0.43678 -1.71484,1.33398 -0.21585,0.777 -1.43928,0.478 -1.88086,0.1582 -0.28087,-0.2034 -0.36822,-0.60406 -0.45508,-0.91406 -0.0827,-0.2949 -0.50954,-0.71141 -0.82422,-0.41601 -0.22053,0.206 -0.50352,0.6386 -0.79687,0.6875 -0.40829,0.067 -0.79782,0.17645 -1.19727,0.28515 -0.38385,0.1035 -0.74995,0.16637 -1.08594,0.38477 -0.35889,0.2335 -0.0767,0.77767 0.0742,1.07617 0.31571,0.6268 -0.3447,1.50727 -0.93555,1.66797 -0.72557,0.1966 -1.48214,-0.0415 -2.22851,0.16406 -0.31883,0.088 -0.76997,-0.12969 -1.08984,-0.21289 -0.34484,-0.091 -0.76614,0.0483 -1.13282,0.0273 -0.34276,-0.018 -0.65966,-0.0152 -0.95508,-0.19531 -0.24342,-0.1482 -0.74077,-0.53529 -0.85156,-0.80469 -0.0582,-0.1415 -0.0881,-0.87047 -0.0117,-0.98437 0.24862,-0.3739 0.58463,-0.51814 0.76563,-0.93164 0.14512,-0.3313 0.20674,-0.7078 0.2832,-1.0625 0.0744,-0.3428 0.49103,-0.62263 0.78906,-0.76563 0.24498,-0.1181 0.74897,-0.23516 0.94141,-0.41406 0.3334,-0.3116 0.51458,-0.38476 0.98633,-0.38476 0.39789,0 0.77606,0.0186 1.17187,0.0586 0.3412,0.034 0.5604,-0.44234 1.01758,-0.24414 0.26526,0.1149 0.66472,0.30987 0.94922,0.10547 0.10871,-0.078 0.274,-0.26044 0.4082,-0.27344 0.14199,-0.013 0.49624,0.0239 0.59766,-0.0781 0.50452,-0.50971 0.73606,-1.28548 0.63672,-2.01368 -0.0416,-0.3048 -0.17901,-0.77228 -0.44531,-0.95898 -0.41038,-0.2887 -0.613,-0.1223 -1.06446,-0.2461 -0.33548,-0.093 -0.88106,-0.26284 -0.65429,-0.71484 0.17841,-0.3552 0.72483,-0.29297 1.08007,-0.29297 0.73805,0 1.47704,-0.16971 2.19532,0.0879 0.61896,0.2226 1.11035,0.12444 1.2539,-0.56836 0.11286,-0.5462 0.54006,-1.01533 0.97852,-1.33203 0.89252,-0.6471 1.56656,-1.66035 2.33789,-2.43945 0.41558,0.6548 -0.0388,1.76175 -0.33008,2.43945 -0.13939,0.3251 -0.47539,0.69902 -0.76562,0.88672 -0.44002,0.2861 -0.64328,0.44098 -0.86329,0.92578 0.28034,0.062 0.81009,0.0778 1.04883,0.23242 0.40465,0.2631 0.51046,0.52424 0.63477,0.99024 0.0723,0.2715 0.15853,0.85293 -0.17383,0.89453 -0.42182,0.053 -0.75815,-0.16406 -1.19141,-0.16406 -0.36512,0 -0.71766,0.0258 -1.07031,-0.0742 -0.41245,-0.1175 -0.72,-0.2793 -1.1543,-0.2793 -0.8894,0 -0.23851,1.32878 -0.0508,1.79688 0.39685,0.9908 1.30473,-0.48375 1.80664,0.16015 0.12795,0.1633 0.55441,0.79641 0.74219,0.53321 0.25121,-0.3548 0.23257,-0.7598 0.5332,-1.0625 0.23301,-0.2356 0.68039,-0.0922 0.90821,0.10351 0.20076,0.1714 0.21794,0.15535 0.48633,0.12305 0.29386,-0.036 0.19742,-0.29869 0.41796,-0.42969 0.349,-0.207 0.69123,0.0298 1.03711,-0.32031 0.30271,-0.3068 0.38233,-0.66992 0.88477,-0.66992 0.48475,0 0.78493,0.1066 1.19531,0.375 0.36564,0.2387 0.4231,0.77931 0.8418,0.97851 0.38852,0.1847 0.69813,-8.3e-4 1.13867,-0.0488 0.23146,-0.025 1.21666,-0.13787 0.64453,-0.51757 0.11391,-0.02 0.0774,-0.0167 0.041,-0.16016 -0.0562,-0.2206 0.0325,-0.19889 0.22851,-0.30859 0.21377,-0.1186 0.3839,-0.35279 0.59766,-0.49219 0.19609,-0.1279 0.48519,-0.15917 0.70312,-0.26367 0.26683,-0.128 0.49959,-0.31454 0.76954,-0.43164 0.33131,-0.1446 0.43707,-0.13136 0.79492,-0.0684 0.24549,0.044 0.43867,0.27631 0.62695,0.0703 0.49516,-0.5425 -0.0763,-1.05849 -0.47266,-1.45899 -0.47903,-0.48369 -0.72499,-0.56313 -0.53515,-1.30273 0.0577,-0.2257 0.29774,-0.44572 0.45898,-0.60742 0.28451,-0.2835 0.38298,0.20191 0.41211,0.41211 0.0432,0.312 0.18811,0.34129 0.44141,0.52539 0.35264,0.2559 0.38922,0.33046 0.50781,0.75586 0.0661,0.2377 0.11041,0.48249 0.19727,0.71289 0.14928,0.3964 0.25302,0.39233 0.65039,0.54883 0.11547,-0.337 0.0698,-0.4961 0.42968,-0.4961 0.32299,0 0.38437,0.13442 0.66211,0.29102 0.30635,0.1727 0.45644,0.11762 0.59375,0.45312 0.0973,0.2387 0.19936,0.47619 0.30078,0.71289 0.41402,-0.1846 0.58161,-0.19228 1.03516,-0.14648 0.10524,0.0106 0.21707,0.0688 0.32422,0.12891 l 0,-436.02344 -0.11719,-0.0996 -0.35742,-0.69922 -0.46289,-0.31055 -0.0449,-1.02539 -0.24024,-0.44922 0.0527,-0.68554 -0.19922,-0.72461 0.12305,-1.69141 1.20117,-1.00976 0.0449,-0.082 0,-2.572258 -0.0176,-0.0156 -0.96289,-0.36718 -0.64062,0.0137 -2.61719,0.041 -0.67383,0.4961 -0.12891,0.27539 0.57813,1.263668 0.75586,0.20899 0.16797,0.3164 -0.21289,0.59961 -0.86133,1.32031 -0.8418,0.95703 -0.60351,0.33204 -0.93555,-0.0449 -0.4043,-0.26172 -0.54687,-0.35351 -0.1543,-0.82227 -0.18945,-0.29101 -0.55664,-0.41797 -0.37891,-0.58203 -0.61328,-0.0781 -0.32617,-0.22265 -0.19336,-0.38086 -0.29297,-0.043 -0.20313,0.25976 0.0684,0.67383 -0.38672,0.31641 -0.27929,0.61914 -0.24805,0.21289 -0.29297,-0.041 -0.44726,-0.44335 -0.84375,-0.0938 -0.40235,-0.67382 -0.41211,0.008 -0.44531,0.30859 -0.24023,0.48438 0.0664,0.83984 -0.66211,0.88672 -0.29297,0.0508 -0.57812,-0.23437 -0.34961,0.68945 -0.39648,0.44336 -0.33789,0.14844 -0.65821,0.0605 -0.20703,-0.10937 -0.1543,-0.81836 -0.61914,-0.12305 -0.55078,-0.0312 -0.42187,-0.6289 -0.80664,-2.14649 -0.42188,-0.60742 -0.27148,-0.76758 -0.92188,-0.57031 -0.17187,-0.476558 0.0976,-0.66407 -0.32812,-0.3125 -0.82813,-0.2539 -2.16796,-0.10742 -0.12305,0.50586 0.15625,1.10351 0.008,0.0781 -0.56445,0.0625 -0.43946,-0.21875 -0.375,-0.40235 -0.12109,-1.23047 -0.36914,-0.23828 -1,0.20508 -0.0723,-0.17969 0.1875,-0.75976 -0.14648,-0.45117 -0.32227,-0.0625 -0.24804,0.16796 -0.33985,0.008 -0.8125,-1.64453 0.17774,-0.18946 0.6875,0.18946 1.18164,0.0898 0.64258,0.0488 0.20312,-0.18946 -0.008,-0.27539 -0.42578,-0.46679 -0.31445,-0.79297 0.31445,-1.10352 -0.12695,-0.58594 0.0801,-0.52929 0.66797,-0.72266 -0.19531,-0.3164 -0.14258,-0.0449 -0.56445,-0.1875 -0.82227,-0.91601 -0.36719,0.008 -0.51953,0.24219 -0.70507,0.0156 -0.88672,-0.95507 0.041,-1.00586 -0.23047,-0.17579 -1.42968,-0.44726 -0.56055,0.33594 -0.54102,0.0332 -0.72461,-0.7793 -1.54882,0.17578 -0.23828,-0.49609 -0.32618,-0.28711 -0.79492,0.0195 -1.25195,-0.97656 -0.6836,-0.5293 -0.5625,0.15235 -0.82617,0.58984 -0.26953,0.30273 -0.0527,0.68555 -0.3125,0.25977 -0.25196,-0.0176 -0.23046,-0.2207 -0.14649,-0.36133 -1.49023,-0.32813 -1.16211,-0.95312 -0.35743,-1.16016 -0.11523,-0.35742 0.0859,-0.25 0.67383,-0.33594 0.3457,-0.83398 0.11523,-0.75586 -0.43359,-0.85742 0.31055,-0.50782 0.3125,-0.21484 0.84179,-0.15625 0.28516,-0.5332 -0.19141,-0.26953 -1.01171,-0.38282 -0.4004,-0.33203 -0.0137,-0.73047 -0.33593,-0.40234 -1.60743,-0.66992 -0.46679,-0.37696 -0.11719,-1.55078 -0.0547,-0.65625 0.12695,-0.39062 0.20313,-0.11133 2.14062,0.75977 0.0371,-0.43555 -0.42578,-0.53711 0.6211,-0.72266 0.0586,-0.2539 -0.81445,-0.61524 -0.1211,-0.50195 0.0488,-0.57031 -0.11523,-0.16016 -1.05664,-0.26758 -0.77149,-0.66797 -0.3418,-0.90234 -0.61718,-0.2832 -0.42969,-0.19336 -0.57813,0.15625 -0.20312,0.0566 -0.51953,-0.15039 -0.35352,-0.53516 -0.0859,-0.31836 0.19531,-0.47656 0.51172,-0.44531 0.56054,-1.37696 0.53711,-0.7207 -0.66015,-0.13086 -0.625,0.44531 -0.61914,0.0273 -0.41211,0.19726 -0.55664,0.44336 -0.36524,0.10547 -0.4668,0.44531 -0.35937,0.7461 -0.43359,-0.0566 -0.28907,-0.21485 -1.03711,0.29492 -0.21484,-0.4375 0.19141,-0.45117 1.56054,-1.40039 -0.041,-0.22851 -0.38477,-0.10352 -0.71093,0.23828 -0.72461,-0.31445 -0.33594,0.043 -0.66602,0.0918 -0.34179,-0.23437 -0.16211,-0.66992 0.29297,-0.8125 0.4707,0.26367 0.73633,-0.2793 0.31445,0.0742 0.29102,0.46289 0.29101,0.11914 0.27539,-0.15234 0.63867,0.0176 0.37891,-0.49219 -0.50391,-0.79297 -1.87304,-0.29101 -1.14258,-0.75782 -0.16797,-0.55468 0.12695,-0.54297 -0.0801,-0.36719 0.0488,-0.0879 0.35352,-0.58594 0.33594,-1.77734 -0.10938,-0.11524 -2.03906,0.31641 -0.94727,0.41406 -0.51953,-0.082 -0.3125,-0.25781 -0.11133,-0.23047 0.30469,-0.35742 1.28516,-0.29102 0.71289,-1.30859 0.27343,-0.92774 -0.0566,-0.86328 -0.5664,-0.77539 -0.75,0.89649 -2.61914,1.09375 -0.0781,0.0293 -0.17578,-0.27539 0.51758,-1.72265 0.15234,-0.42969 c -0.18205,-0.47695 -1.11916,-1.5345 -0.65625,-2 0.30687,-0.30792 0.74387,-0.34954 1.11524,-0.58985 0.38333,-0.24808 0.34562,-0.53321 0.29101,-0.92382 -0.10454,-0.74793 -1.25547,-0.93777 -1.34961,-1.61133 -0.0915,-0.65795 -0.0398,-1.60346 -0.6582,-2.03516 -0.60178,-0.42025 -1.53733,-0.27598 -2.07617,0.14844 -0.4962,0.39009 -1.03401,1.25195 -1.71485,1.25195 -0.233,0 -1.02582,0.079 -1.14648,-0.11914 l -0.44531,-1.17578 -0.36328,-0.28125 -0.97071,-0.36523 -0.19922,-0.25391 0.23829,-0.49609 -0.11914,-0.61914 -0.32227,0.0156 -1.21875,1.27149 -0.94336,-0.61524 -1.30469,0.0879 -0.47461,0.0312 -0.89453,0.11524 -0.69336,0.32812 -0.3789,-0.49023 -0.82422,-0.084 -0.20508,0.15625 -0.0566,0.5 -0.47461,-0.0332 -0.91797,-0.93555 -0.47656,-0.10156 -0.45899,0.14648 -0.30468,0.29297 0.58593,0.33203 0.0605,0.36915 -0.23633,0.35742 -0.3164,-0.0742 -0.20313,-0.23438 -0.4707,0.62891 -0.66016,0.008 -0.88476,0.80469 -0.48047,0.01 -1.12891,-0.66407 -0.58984,-0.17578 -0.084,-0.18555 0.18555,-0.24414 -0.36523,-0.0762 -0.4375,0.26367 -0.58594,1.6543 -0.30078,0.2207 -0.59375,-0.0566 -0.78125,-0.86718 -0.9375,0.23437 -0.49805,-0.3125 -1.02734,-0.0195 -0.97852,-1.05274 -0.5918,-0.21679 -0.0723,-0.93945 -0.41602,-0.50977 -0.46093,0.0332 -0.50782,0.33203 -0.27343,-0.0723 -0.35547,-0.50977 -0.0254,-0.73437 -0.19532,-0.5293 -0.47265,-0.35352 -0.98242,-0.0664 -0.6504,-0.38086 -0.44726,-0.625 0.53711,-0.35156 -0.043,-0.23047 0.25977,-0.27149 -0.48438,-0.87695 0.12109,-0.36133 -0.40234,-0.35351 -0.5957,0.0332 -0.39063,0.28711 -0.51953,-0.41797 -0.10742,-0.25586 0.26172,-0.42969 -1.29688,-2.33593 -0.32226,-0.0742 -0.64063,-0.76758 0.041,-0.84375 -0.46485,0.2207 -0.36523,-0.0332 0.19531,-0.49609 -0.33398,-0.48829 -0.54297,0.0332 -0.58594,-0.42383 -0.34375,-0.0781 -0.96289,-0.88476 -0.9668,-0.66211 -0.93554,-1.02539 -0.66016,-0.10742 -0.94726,0.34375 -0.99219,0.71093 -0.73633,0.16797 -1.45898,-0.14843 -1.41993,0.0879 -1.40429,-0.48828 -1.25977,0.17968 -1.88281,-0.61133 -0.36524,-0.0332 -0.33203,0.16992 -2.08008,1.65235 -0.7246,0.3457 -2.65821,0.35742 -1.03906,0.59961 -1.17969,-0.004 -1.44726,-0.875 -0.28321,-0.004 -0.19726,-0.004 -1.28906,0.58594 -1.34375,0.90625 -0.5254,0.21875 -0.45898,0.0156 -0.60156,0.37304 -0.4668,0.63477 -0.33398,0.73047 -0.0977,0.21679 0.0547,0.55078 -1.9043,1.49024 -1.03125,0.34375 -0.59961,0.0527 -0.58203,-0.20117 -0.5293,0.33008 -0.79492,0.41016 -0.44922,0.5625 0.0508,0.93945 -0.49609,1.01758 -0.30078,1.13281 0.008,0.0527 0.0899,0.95703 -1.04102,0.66407 -0.35742,0.8125 -0.13867,1.02539 0.52148,1.6543 -0.33398,0.45117 -0.32422,0.24218 -1.1875,0.18555 -1.58399,-0.78906 -1.63281,0.51758 -0.66016,0.0781 -0.375,-0.10547 -0.30859,-0.0918 -0.50781,0.17187 0.16015,1.41992 -0.17968,1.02735 -0.71485,1.35351 -0.34179,1.20313 -0.35352,0.63086 -2.04297,1.7207 -1.15039,0.48047 -1.79297,-0.20313 -0.4375,-0.0488 -0.52148,-0.23829 -0.9336,0.004 -1.90625,0.51367 -2.05273,-0.0605 -1.99805,-0.58789 -1.10937,-0.52149 -1.66992,-1.0625 -0.83789,-0.26562 -0.40625,0.0332 -1.03516,0.0781 -1.06055,-0.59179 -1.0332,-0.88282 -0.13867,-0.11914 0.1875,-1.27734 -0.41406,-0.13867 -0.1875,-0.39844 -0.22657,-0.0977 -1.51172,0.1543 -0.52343,-0.26172 -0.10352,-0.39062 -0.19922,-1.85742 -0.55664,-0.875 -0.77148,-0.74219 0.63476,-0.69922 0.75586,-0.39258 0.59961,-0.42187 0.5293,-0.15235 0.84179,0.10547 0.33399,0.50977 0.20508,0.59961 0.46484,-0.0137 0.27149,-0.97656 0.65429,-0.62695 -0.20312,-0.36914 -0.51953,-0.2832 -0.48828,-0.73829 -0.0566,-0.39062 0.33204,-0.79102 0.32617,-0.40625 0.5039,-0.084 1.16602,-1.14063 0.72852,-0.0527 0.16601,-0.16016 -0.11133,-0.29492 -0.72656,-0.13086 -0.9707,-0.45312 -0.34961,-0.89844 -0.26953,-0.3125 -0.22266,-0.26563 0.37695,-0.49609 0.375,-1.70508 0.71485,-0.42187 0.60937,0.51758 0.3418,-0.0606 0.37305,-0.33789 0.24023,-0.63672 -0.19922,-0.5293 -0.4668,-0.44336 -1.58007,-0.87304 -0.28711,-0.6211 -0.24805,-0.1875 -0.10742,-1.51172 0.2168,-0.54101 0.58007,-0.62891 0.0645,-0.041 1.37304,-0.84375 0.34961,-0.42383 -0.26367,-0.5332 -0.28906,-0.375 -0.79492,-0.28711 -1.57618,-0.0312 -0.41601,0.15039 -0.61328,-0.0117 -0.35547,-0.5293 0.26172,-0.66016 -0.21875,-0.46093 -0.16016,-0.0234 -0.27148,-0.52148 -0.26368,-0.082 -0.49218,-0.53906 -0.48242,0.15234 -0.66797,0.88282 -0.57227,0.0449 -0.45508,-0.13867 -0.34961,-0.0996 -0.38086,-0.55469 -0.1289,-0.52344 0.46875,-1.56836 0.22851,-0.23437 0.44532,-0.46289 1.30859,-0.45313 0.0508,-0.0527 1.33203,-1.51758 0.14453,-0.5918 0.0352,-0.68554 -0.54492,0.10156 0.0566,-0.54492 0.51562,-0.85742 -0.0371,-0.39063 -0.22656,-0.0234 -0.62695,0.32813 -0.2461,-0.11719 -0.3457,-1.08008 0.19531,-0.5664 0.44336,-0.4961 0.34571,-0.12695 1.18554,0.0898 0.48047,-0.15234 0.72657,-0.7832 0.21874,-0.36914 -0.1582,-0.40821 -0.17773,-0.2539 -0.84571,0.0977 -0.40625,-0.3515602 -0.81835,-0.33203 -0.28711,-0.43945 -0.041,-0.36915 -0.56055,-0.39843 -0.86914,0.0977 -0.44726,-0.7832 0.0801,-0.51172 0.89453,-1.42578 -0.76368,-1.51367 0.66602,-0.40625 0.6875,-0.75 0.45898,-1.03125 -0.28711,-0.42774 -2.36328,-0.61523 -0.45507,-0.0977 -0.17383,-0.2539 -0.80469,-0.0547 z"
     id="rect6"
     inkscape:connector-curvature="0" />
  <path
     style="fill:#009e60"
     d="m 487.2832,78.019132 -0.67968,0.15234 -0.56055,0.40039 -1.91406,1.13867 -0.70508,0.0859 -1.02539,-0.16016 -1.68946,-0.16601 -0.29296,0.25586 -0.81641,0.13476 -0.6875,-0.0547 -2.4668,0.74415 -2.01172,0.86523 -0.50976,0.44727 -1.08203,0.64062 -2.01563,2.35156 -0.47851,0.0332 -2.10743,-0.40625 -2.01562,-0.22657 -1.71484,-0.27734 -0.89258,-0.16602 -0.83008,-0.082 -0.93359,-0.0976 -0.4336,0.75586 -1.36133,1.39843 -0.95312,-0.0508 -0.85352,0.79688 -0.77539,-0.0977 -0.75,0.22266 -0.54687,-0.0137 -0.36914,-0.31055 -0.24805,0.008 -0.44727,0.37305 -0.38867,0.008 -0.15625,0.27539 0.0332,0.1543 0.041,0.23437 -0.43359,1.03516 0.12109,0.38672 0.40039,0.49023 -0.12304,0.24805 -0.11133,0.23828 -0.5625,0.5625 -0.64844,0.33203 -0.54883,0.0332 -0.68945,-0.2129 -0.83008,-0.50586 -0.83789,0.26563 -1.32031,-0.0352 -0.49414,0.35157 -0.88086,1.21484 0.16406,1.66211 -1.11328,0.11914 -0.91016,0.13672 -0.27734,-0.24414 -1.23828,-0.29102 -1.30274,-0.94726 -1.67578,-0.68946 -1.39844,-1.0625 -0.6582,-0.0293 -0.51953,0.24218 -0.5293,0.67383 -0.42968,1.0625 -2.1543,1.46485 -0.60156,1.45312 -0.71094,0.72656 -2.81641,1.32618 -1.09375,-0.043 -0.72656,0.0371 -0.40625,0.30859 -0.34961,0.44336 -1.04688,0.11914 -0.63671,-0.0195 -0.62305,-0.26367 -0.47852,0.14843 -0.50781,-0.35351 -0.22461,0.11719 -0.64844,1.72461 0.0996,0.22461 0.92969,0.006 0.16211,0.13086 -0.0156,0.230468 -0.54883,0.85742 0.12695,0.52149 -0.10156,0.59375 -0.44336,0.51172 0.004,0.0996 0.0371,0.69726 -0.43164,0.17383 -0.47851,0.76367 0.42187,0.7168 -0.36523,0.78516 -0.55664,0.67578 0.21875,0.65625 -0.23047,0.71093 0.0801,0.54493 -0.20508,1.1914 -0.94141,1.57617 -1.63281,2.02735 -0.16211,0.20117 -2.98242,-2.47852 -0.17383,-0.14062 -1.02148,-0.0215 -0.60938,0.35352 -0.33398,0.37305 -0.23633,0.66992 0.15625,0.78906 0.0273,0.14258 -0.35351,0.62305 -0.51563,0.23828 -0.91601,-0.0449 -0.47852,-0.24219 -0.97851,-0.93555 -0.62305,-1.35351 -0.63281,-2.61133 -0.3086,-0.58203 -0.42969,-0.40235 -0.31445,-0.29101 -0.55078,-0.30469 -0.41211,-0.0117 -1.30859,0.48242 -1.49414,0.44922 -0.95117,0.10938 -1.73047,0.041 -0.6543,0.33789 -0.71484,0.12305 -0.0527,0.008 -0.26172,-0.2207 -0.35742,-0.69922 -0.46289,-0.31055 -0.0449,-1.02539 -0.24024,-0.44922 0.0527,-0.68554 -0.19922,-0.72461 0.12305,-1.69141 1.20117,-1.00976 0.24219,-0.43946 0.19726,-1.35351 -0.14258,-0.623048 -0.26953,-0.25391 -0.96289,-0.36718 -0.64062,0.0137 -0.37891,0.006 0,444.705078 c 0.13874,0.0577 0.25082,0.11841 0.33984,0.33593 0.0973,0.2387 0.19936,0.47619 0.30078,0.71289 0.41402,-0.1846 0.58161,-0.19228 1.03516,-0.14648 0.15915,0.016 0.3403,0.14664 0.48438,0.21484 0.10038,0.048 0.35038,-0.21153 0.4414,-0.27343 0.24446,-0.1654 0.65354,-0.42753 0.96094,-0.23243 0.32091,0.2038 0.628,0.54484 1.00977,0.49024 0.42338,-0.061 0.51166,-0.26944 0.85546,-0.49414 0.41246,-0.2694 0.75158,-0.0393 1.14063,0.20898 0.35213,0.2247 0.60616,0.26172 1.00976,0.26172 0.31104,0 -0.28541,-0.83821 -0.28906,-0.88281 -0.0515,-0.578 -0.0743,-0.51683 -0.63086,-0.64063 -0.12119,-0.026 -0.42614,-0.0336 -0.5,-0.13672 -0.14407,-0.2033 -0.18274,-0.43836 -0.41211,-0.28906 -0.31155,0.2044 -0.70038,0.44966 -0.96875,0.13086 -0.29543,-0.3527 -0.15976,-0.71142 0.0488,-1.07812 0.11599,-0.2028 0.56834,-0.38646 0.74414,-0.59766 0.19973,-0.2398 0.52302,-0.78511 0.88086,-0.50781 0.38021,0.2944 0.54673,0.48671 1.01172,0.32031 0.39789,-0.1431 0.64356,-0.28567 1.07422,-0.32617 0.65431,-0.061 1.16769,-0.20366 1.81836,-0.0684 -0.13835,0.1769 -0.27403,0.3555 -0.41602,0.5293 -0.31416,0.3864 0.0366,0.215 0.10938,0.5957 0.0655,0.3428 0.058,0.53465 -0.004,0.87695 -0.0198,0.1076 0.52673,0.16711 0.64063,0.0703 0.20233,-0.1706 0.40666,-0.3338 0.61523,-0.4961 0.14719,-0.115 0.57018,0.0592 0.66016,-0.0918 0.14875,-0.2518 0.29517,-0.47858 0.47461,-0.70898 0.13627,-0.1737 0.13653,-0.46347 0.29101,-0.60547 0.38437,-0.3542 0.91495,-0.63783 1.26758,-0.082 0.29595,0.4655 0.765,0.80474 1.26172,1.02734 0.2044,0.091 0.49009,-0.0413 0.66797,0.0527 0.14408,0.076 0.38923,0.5199 0.51562,0.6582 0.16124,0.1769 0.44538,0.14232 0.67578,0.16992 0.3771,0.044 0.42263,0.10779 0.68165,0.39649 0.38279,-0.5488 0.82788,-1.11936 1.22265,-1.72266 0.15291,-0.2351 0.71679,-0.19631 0.98828,-0.22851 0.14668,-0.017 0.19451,-0.94503 0.27149,-1.07813 0.0988,-0.1717 0.62031,-0.61133 0.8164,-0.61133 0.1165,0 0.47144,-0.066 0.53125,0.041 0.11079,0.1981 0.21946,0.3833 0.35157,0.5664 0.57525,0.7994 1.3576,0.1521 1.87304,-0.3457 0.25798,-0.2486 0.52277,-0.4345 0.89258,-0.4668 0.58097,-0.053 0.63097,0.12539 0.90039,0.55079 0.45874,0.7235 1.3398,-0.079 1.9707,0.45507 0.31416,0.2663 -0.0929,0.51405 -0.29687,0.81055 -0.22053,0.3198 -0.11718,0.73982 0.16992,0.97852 0.19401,0.1609 0.68903,0.44765 0.95117,0.41015 0.15552,-0.022 0.28278,-0.23083 0.44141,-0.27344 0.2559,-0.07 0.4658,-0.0593 0.59375,-0.29687 0.35576,-0.6596 1.07134,-1.0471 1.7168,-1.3457 0.78642,-0.3635 1.337,-0.19492 2.02148,0.30078 0.30895,0.2237 0.63328,0.34601 0.97656,0.50781 0.44158,0.208 0.59386,-0.17803 0.77539,-0.54883 0.17684,-0.3646 0.72326,0.12332 0.88086,0.19922 0.31415,0.1513 0.8105,0.20117 1.1543,0.20117 0.86652,2e-4 1.11713,-0.53552 1.64453,-1.11132 0.2559,-0.2804 0.59273,-0.53748 0.79297,-0.0801 0.17633,0.4037 0.39017,0.57372 0.8125,0.63672 0.80671,0.1191 1.36439,0.47177 2.08008,0.83007 0.5997,0.2996 1.47016,0.26112 2.11719,0.19922 0.26422,-0.025 0.79695,-0.0534 0.85156,-0.36719 0.0947,-0.54559 0.27026,-0.62695 0.80078,-0.62695 0.70164,0 1.45177,0.41237 2.16797,0.48047 0.39373,0.038 0.60445,0.24564 0.8125,0.55664 0.0733,0.1108 0.3904,0.0907 0.51367,0.10938 0.19556,0.03 0.33395,0.1694 0.49414,0.2832 0.2663,0.19 0.51404,0.46096 0.7793,0.63476 0.28242,0.18361 0.70825,0.23664 1.02343,0.33594 0.68865,0.2174 1.30416,0.87829 2.05469,0.71289 0.40258,-0.089 0.59087,-0.24859 0.86914,-0.55859 0.30166,-0.336 0.67182,-0.42388 1.10352,-0.51758 0.27307,-0.058 1.85766,-0.81714 1.74219,-1.14844 -0.26266,-0.7589 -0.65905,-1.55648 -1.5625,-1.17578 -0.23614,0.1 -0.31703,0.40863 -0.57813,0.39453 -0.33964,-0.019 -0.484,-0.0746 -0.78515,-0.23828 -0.20025,-0.1087 -0.27935,-0.3551 -0.50196,-0.4414 -0.45303,-0.1748 -0.29571,-0.0236 -0.68164,0.1914 -0.48839,0.272 -1.15503,0.0586 -1.68555,0.0586 -0.61165,0 -0.80275,-0.74836 -0.90625,-1.22266 0.31675,-0.042 0.75339,-0.0494 1.04102,-0.19336 0.34172,-0.1727 0.71562,-0.34715 1.09375,-0.15625 0.28347,0.1435 0.67305,0.31146 0.96484,0.0977 0.31102,-0.2283 0.66018,-0.40716 0.96289,-0.0977 0.44679,0.4561 1.45278,0.28411 2.04883,0.31641 0.38437,0.021 0.75079,0.0625 1.13672,0.0625 0.19921,0 0.32615,-0.12668 0.49414,-0.23438 0.11911,-0.078 0.29068,0.20069 0.43164,0.20899 0.21793,0.015 0.90698,0.12378 1.05469,-0.041 0.26578,-0.2954 0.5455,-0.57602 0.6875,-0.95312 0.25589,-0.6792 0.1285,-1.64231 0.68555,-2.15821 0.80254,-0.7449 0.55009,1.23241 0.52148,1.53711 -0.026,0.2846 -0.20039,0.72959 -0.0371,0.95899 0.25797,0.3646 0.38283,0.67742 0.78125,0.89062 0.0125,0.01 0.0241,0.0145 0.0371,0.0215 0.0712,-0.3282 0.12383,-0.70224 0.40625,-0.93164 0.31572,-0.258 0.71389,-0.19058 0.68945,0.29882 -0.0198,0.4099 -0.0312,0.81421 -0.0312,1.22461 0,0.3147 0.78334,0.10215 0.97266,0.0605 0.28399,-0.063 0.69313,0.28019 0.9043,0.43359 0.21325,0.1545 0.84424,0.14361 1.11523,0.19141 0.35056,0.061 0.47538,0.52268 0.75781,0.64648 0.37292,0.1633 0.72527,-0.10007 0.92188,-0.38867 0.50659,-0.7438 1.43171,-0.48235 1.57422,0.40235 0.0635,0.3922 0.33123,0.56642 0.70312,0.66992 0.4525,0.1269 0.69866,0.24012 0.95508,0.64062 0.20285,0.3167 0.30473,0.54153 0.71875,0.45313 0.45666,-0.098 0.70485,-0.26367 1.20313,-0.26367 0.75261,0 1.42325,0.0465 2.14257,0.28906 0.70424,0.2387 1.61741,0.43394 1.97266,-0.37696 0.35368,-0.80669 -0.81875,-1.08038 -1.38672,-1.24218 -0.54144,-0.1534 -1.14359,-0.99085 -1.22265,-1.53125 -0.1113,-0.7662 -0.3023,-1.42957 -0.83594,-2.01367 -1.0288,-1.1245 -2.40346,-1.8892 -3.50977,-2.9336 -0.26474,-0.2501 -0.50334,-0.52801 -0.75976,-0.78711 -0.31467,-0.3183 -0.10467,-0.66137 0.0977,-0.98437 0.43899,-0.7042 1.53611,-0.23312 2.14258,0.0547 0.75937,0.3594 1.32894,-0.0214 2.11328,0.0586 0.14615,0.015 0.6016,0.57766 0.72071,0.69726 0.27046,0.2731 0.54099,0.54736 0.8125,0.81836 0.51596,0.5139 0.34705,1.32118 0.28515,1.98438 -0.0349,0.3677 -0.10014,0.77826 0.0606,1.13086 0.0692,0.1535 0.24409,0.25531 0.30078,0.41601 0.0744,0.2138 0.12597,0.4118 0.26172,0.5918 0.44835,0.5892 0.86228,1.29021 1.46094,1.69531 0.65639,0.4437 1.237,0.80936 1.72851,1.44336 0.20597,0.2663 -0.24491,0.69777 -0.43164,0.88867 -0.28502,0.2923 -0.51205,0.41469 -0.75391,0.77149 -0.47122,0.6949 -1.13233,0.84059 -1.92187,0.62109 -0.94714,-0.2622 -1.75954,-0.36914 -2.72852,-0.36914 -0.25902,0 -0.6032,-0.12449 -0.65625,0.16211 -0.0655,0.3563 0.0298,0.39634 0.20508,0.71094 0.20649,0.3709 0.50019,0.80021 0.54492,1.22461 -0.40309,0 -0.69866,1.8e-4 -1.05078,-0.23242 -0.38489,-0.2486 -0.55812,-0.58049 -0.87695,-0.90039 -0.24238,-0.2429 -0.63456,-0.47189 -0.95703,-0.5879 -0.1628,-0.059 -0.35998,-0.0415 -0.51758,-0.11328 -0.14251,-0.065 -0.28369,-0.29296 -0.44336,-0.29296 -0.54145,0 -0.6343,-0.16215 -1.05664,-0.46485 -0.32247,-0.2314 -0.70924,-0.11458 -1.08008,-0.0176 -0.2273,0.059 -0.34069,0.0642 -0.57422,0.0352 -0.25694,-0.031 -0.33507,0.14749 -0.56445,0.24219 -0.33807,0.1394 -0.79646,0.15403 -1.1543,0.20703 0.12795,-0.1955 0.39533,-0.73199 -0.0332,-0.77149 -0.41246,-0.04 -0.7476,-0.0866 -1.08984,-0.33593 -0.30791,-0.2236 -0.73782,-0.099 -0.77735,-0.50391 -0.0458,-0.4774 -0.21004,-0.69141 -0.69531,-0.69141 -0.30271,0 -2.27222,0.37924 -1.66992,0.93164 0.0973,0.089 0.35043,0.01 0.47265,0.084 0.18413,0.1196 0.33858,0.1933 0.45508,0.3789 0.17424,0.27731 0.16683,0.26811 0.0176,0.5625 -0.0905,0.17791 -0.4776,0.0274 -0.57226,0.16602 -0.0572,0.084 0.0443,0.46943 0.0547,0.57813 0.0104,0.1072 -0.24451,0.28412 -0.31836,0.35742 -0.1706,0.1717 -0.88354,-0.0361 -1.03906,-0.17383 -0.2096,-0.1847 -0.3902,-0.65634 -0.54883,-0.90234 -0.22522,-0.3485 -0.44792,-0.66554 -0.74023,-0.96094 -0.35056,-0.3547 -0.42296,-0.39355 -0.92383,-0.46485 -0.0936,-0.013 -0.42774,0.79899 -0.52344,0.90039 -0.45719,0.48841 -1.37983,0.612 -1.96289,0.9043 -0.30531,0.1524 -0.61112,0.29637 -0.9414,0.38477 -0.4343,0.116 -0.74852,0.35838 -1.1875,0.45508 -0.78799,0.1727 -1.33686,-0.83762 -2.10352,-0.69922 -0.38333,0.069 -0.56323,0.57018 -0.24023,0.80468 0.31675,0.2315 0.67518,0.30836 0.98828,0.53516 0.0801,0.059 0.15544,0.10836 0.23242,0.16406 l 0.2832,-0.0273 0.88086,0.12891 1.44922,0.69726 1.08984,0.29102 5.01563,0.76367 1.29883,0.39062 2.04883,0.61133 3.66992,1.66602 1.6289,0.37695 4.55274,0.54297 0.84375,0.10156 1.02148,0.17578 1.49024,0.53907 0.79297,0.0859 0.2871,-0.41406 0.86329,0.54102 4.78906,0.42578 1.78515,0.36718 2.08008,0.42579 6.12305,0.62304 2.36523,0.43555 0.61719,0.11523 1.09766,0.10157 2.33594,0.21875 0.27148,0.2207 0.47461,0 0.40625,0.22656 6.62109,0.86914 4.77344,0.47266 0.19531,0.0195 2.86914,0.73438 1.15235,0.22265 3.9375,0.3086 c 0.60542,-0.6033 1.1541,-1.69809 1.01367,-2.45899 l 0,0.0566 c -0.0926,-0.071 -0.30303,-0.30989 -0.41797,-0.2793 -0.14824,0.038 -0.39707,0.1627 -0.54687,0.1211 -0.38749,-0.1077 -0.77996,-0.18766 -1.16797,-0.28906 -0.28346,-0.074 -0.79257,-0.15667 -0.87891,-0.47657 -0.11079,-0.4041 -0.17461,-0.77962 -0.004,-1.17382 0.16488,-0.3802 0.32795,-0.66348 0.0352,-0.98438 -0.23562,-0.2569 -0.81438,-0.10707 -1.14258,-0.0762 -0.42286,0.04 -0.52344,-0.34187 -0.52344,-0.66797 0,-0.4697 0.11677,-0.70358 0.57032,-0.76758 0.35212,-0.048 0.69658,-0.0243 1.04297,0.0527 0.31468,0.069 0.9033,0.3828 1.12695,0 0.20285,-0.3485 -0.17896,-0.76128 -0.11914,-1.08008 0.0921,-0.492 0.57533,-0.28376 0.91601,-0.31445 0.47955,-0.044 0.52954,-0.27235 0.79688,-0.65626 0.20181,-0.2907 0.32471,-0.6599 0.49219,-0.9746 0.38905,-0.7323 1.53208,-0.13907 2.03711,-0.01 0.63767,0.1696 0.84345,-0.0312 1.10351,-0.60156 0.21377,-0.4665 -0.23767,-0.85699 -0.64648,-0.89649 -0.97471,-0.092 -1.87839,-0.0882 -2.82813,-0.32031 -0.47539,-0.4187 -1.09931,-1.21397 -0.50586,-1.76367 0.27983,-0.259 0.51172,-0.5111 0.51172,-0.9043 0,-0.4816 -0.25561,-0.68327 0.11524,-1.04687 -0.014,0.014 0.92526,0.18816 1.02148,0.19336 0.45615,0.02 0.69767,-0.19073 1.02539,-0.45703 0.35514,-0.2886 1.66104,-0.75769 1.44727,-1.36719 -0.12431,-0.3522 -0.34078,-0.63741 -0.54883,-0.94531 -0.21221,-0.31151 -0.32193,-0.7049 -0.45508,-1.0586 -0.18881,-0.4998 -0.96796,-1.4431 -0.58984,-2.0293 0.44367,-0.6886 1.30858,-0.71688 1.96289,-1.14648 0.65536,-0.4306 0.9937,-1.05057 1.81445,-1.10938 0.73753,-0.053 1.52389,0.20447 2.13867,0.60547 0.34276,0.2237 0.56761,0.32761 0.97071,0.28711 0.36876,-0.037 0.64502,-0.3176 1.0039,-0.4414 0.66731,-0.2325 1.06576,-0.9076 1.73828,-1.125 0.6824,-0.2206 1.53463,-0.36672 2.18946,-0.0742 1.31279,0.5862 1.63335,2.73776 1.27343,4.00586 -0.0791,0.2761 -0.25203,0.68564 -0.40234,0.93164 -0.24862,0.4052 -0.49981,0.32922 -0.83789,0.57422 -0.33912,0.246 -0.57705,0.2075 -0.92969,0.375 -0.3386,0.1607 -0.66466,0.3525 -1.00586,0.5039 -0.27723,0.1227 -0.67157,0.267 -0.79687,0.5625 -0.15671,0.3677 -0.13765,0.7137 -0.24219,1.0918 -0.09,0.321 -0.3418,0.69267 -0.3418,1.01367 0,0.3604 0.13142,0.84335 0.082,1.18555 -0.11599,0.813 -0.42618,1.32523 -1.10546,1.80273 -0.30635,0.2153 -0.63279,0.34787 -0.99219,0.44727 -0.43898,0.1222 -0.54547,0.44259 -0.56836,0.87109 -0.0177,0.3241 0.0256,0.66362 -0.0176,0.98242 -0.0463,0.3392 -0.18336,0.85136 -0.10742,1.18946 0.0832,0.3724 0.42573,0.54299 0.76172,0.62109 0.45095,0.1035 0.65712,0.22566 0.91406,0.63086 0.37917,0.5976 0.74751,1.39774 1.40234,1.64844 0.336,0.1301 0.6369,0.23064 0.95313,0.40234 0.24914,0.1352 0.37143,0.69422 0.52539,0.91992 0.43378,0.6361 0.86377,1.3066 1.31055,1.9375 0.32611,0.4592 0.22515,0.53046 0.81445,0.37696 0.32507,-0.084 0.68847,-0.35228 1.01562,-0.38868 0.77394,-0.086 1.26532,0.9268 2.07618,0.4004 0.7417,-0.4821 1.36334,-0.1045 2.16797,-0.1836 0.20128,-0.02 0.37612,0.0103 0.52539,-0.13281 0.14459,-0.1352 0.22956,-0.24956 0.41992,-0.28906 0.52012,-0.1087 0.76342,0.0441 1.15039,0.40234 0.6023,0.5592 1.00271,0.84604 1.84375,0.96094 0.32715,0.044 0.74149,-0.0727 1.08789,-0.0547 0.36097,0.018 0.61784,0.30645 0.91016,0.46875 0.34432,0.1919 0.67877,0.22127 1.06054,0.25977 0.26942,0.028 0.76972,0.31554 0.99805,0.46484 0.71724,0.4655 1.47628,0.94638 2.31055,1.17578 1.24777,0.3443 1.28627,-0.94697 2.19336,-1.32617 0.97991,-0.4093 1.39839,-1.03087 1.17578,-2.10547 -0.18985,-0.9211 -0.56055,-1.79625 -0.56055,-2.74805 0.6491,0.4655 1.23623,0.64453 2.01953,0.54883 0.75521,-0.092 1.49284,-0.25994 2.24805,-0.37304 0.73233,-0.10961 1.4067,-0.32007 2.02148,-0.73047 0.2612,-0.1737 0.57579,-0.58168 0.86133,-0.64258 0.5066,-0.1097 0.68196,0.10822 1.09961,0.39062 0.2325,0.1576 0.51157,0.57314 0.68945,0.80664 0.22417,0.2949 0.42169,0.66596 0.57617,1.00196 0.14459,0.3137 0.31188,0.60572 0.33008,0.95312 0.0218,0.4037 0.21875,0.71979 0.21875,1.11719 0,0.4275 -0.36133,0.46862 -0.73633,0.39062 -0.45199,-0.096 -0.75309,-0.22215 -1.20507,-0.0937 -0.76614,0.2174 -1.4759,0.11093 -2.22852,0.41993 -0.32819,0.1352 -0.68028,0.20322 -1.01367,0.32812 -0.34172,0.1279 -0.62848,0.3648 -0.97852,0.5 -0.31259,0.1202 -0.56022,0.34675 -0.89257,0.46484 -0.39789,0.1389 -0.65842,0.2021 -1.07618,0.2754 -0.23968,0.042 -0.82535,0.14699 -0.89453,0.46679 -0.0276,0.1301 0.15783,0.30691 0.17188,0.34961 0.0655,0.194 0.0775,0.41133 0.1289,0.61133 l 0.95508,-0.73047 1.375,-0.21289 0.13477,-0.0254 1.37695,0.24805 0.29297,-0.57032 0.4707,0.19922 0.56641,-0.20507 0.76758,0.0859 1.25195,0.68555 0.97461,0.75976 0.93359,-0.0625 0.22071,-0.57031 0.25195,-0.2207 0.52734,-0.12891 0.97461,1.20313 0.43555,-0.66406 0.1582,-0.0352 0.15039,0.45703 0.0996,0.01 0.24219,-0.59571 0.74805,0.38282 0.12695,0.0234 0.41211,0.0859 0.29492,-0.16016 0.38086,-0.93945 0.27148,0.66016 0.36329,-0.16016 1.04101,0.13086 0.79102,0.81641 0.36132,0.043 0.17383,-1.05274 0.17969,-0.24805 1.19922,0.0352 0.15234,-0.18359 0.0176,-0.89258 0.51563,-0.73438 0.42773,0.0215 0.20313,-0.32031 0.11328,-0.25586 -0.55078,-1.25196 -0.17969,-0.24804 -0.31641,0.0937 -0.25195,-0.16016 0.26758,-0.50586 -0.60938,-0.15625 -0.20508,-0.33984 0.31055,-1.07422 -0.0488,-0.55078 -0.31836,-0.27149 -0.0469,-0.32031 -0.30274,-1.30078 -0.26562,-0.0898 -0.36328,0.22851 -0.10742,0.13672 -0.13477,-0.73047 -0.56641,-0.5 0.1543,-0.32031 0.47266,-0.0254 -0.1836,-1.16406 0.3125,-0.14063 0,-0.32031 -0.65429,-0.0645 -0.0469,-0.10742 -0.0664,-0.16797 0.18359,-0.36523 0.8125,0.0215 -0.3418,-0.70703 0.4961,0 -0.28321,-1.21875 -1.49804,0.50977 -0.68946,-1.20313 0.74805,0.12305 0.19141,-0.25 -1.3125,-0.88672 -0.25196,-0.38086 -0.1875,-0.82031 0.1875,-0.38281 0.92578,-0.29102 0.24805,-0.41601 0.125,-2.01172 -0.0527,-0.10547 -0.5586,-1.04297 0.5625,-0.41406 -0.51953,-0.70508 0.78906,-0.98438 0.31055,0 0.16797,0.16016 0.9668,0.93164 1.16992,-0.39453 1.49609,0.33594 0.1543,-0.75 -0.0156,-3.36133 -0.22851,-0.38672 -0.31641,-1.2793 -0.91015,-1.64062 -0.24414,-0.58399 -0.66797,-1.6289 -0.99805,-6.16602 -0.9668,-4.33789 0,-0.10156 -0.0234,-1.17969 0.77149,-3.97656 -0.58789,-0.66016 -0.61133,-0.041 0.10938,-1.03125 -0.22657,-0.16016 -0.94726,0.0293 -0.29688,-1.11914 -0.6582,0.38867 -0.67383,0.0508 -0.54297,-0.48438 -0.4082,-0.40624 -1.08203,-0.0781 -0.0918,-0.01 -1.63476,-1.10937 -1.58399,-0.67578 -0.47851,-0.88672 -0.35938,0.48047 -0.54101,0.20703 -0.22266,0.64062 -0.58984,0.0957 -1.3086,0.90625 -0.42187,0.83789 -0.69141,0 -0.37305,0.25 -1.3164,0.19336 -0.73243,0.72461 -0.49609,0.0254 -0.56445,-0.5 -0.75,-1.11719 -1.39844,-0.26758 -0.63867,-0.61523 0.50781,-3.41016 0.54492,-3.69922 -2.37109,0.0781 -0.99609,-0.13086 -0.81055,0.27539 -1.12891,0.0742 -0.40625,-0.18164 -1.04101,0 0.0156,-1.89063 0.0176,-1.90234 0.24414,-0.77344 0.25586,-3.68164 -0.0937,-0.93555 0.25977,-2.12695 0.004,-3.07031 0.004,-0.97266 -2.67578,-6.04101 -0.0664,-0.63868 -1.41016,-2.68945 -0.2539,-0.91406 -0.13086,-0.30469 -1.44336,-3.45508 -0.81445,-4.75 -0.33985,-1.09375 -0.0976,-1.57617 -0.20899,-1.24023 -0.98047,-5.78907 -2.18359,-4.10156 -0.88281,-1.81445 -0.6211,-1.2832 -0.27539,-0.91211 -0.91015,-1.36719 -1.40625,-0.0156 -0.92578,0.13867 0.0352,-0.0977 0.37109,-1.04688 -0.13085,-3.97265 -0.12891,-0.96289 -0.10547,-0.81641 -0.38672,-0.29687 -0.47851,-1.00196 -0.0781,-1.64062 -0.36133,-0.61524 -0.32031,-1.16601 -1.5293,-6.37305 -2.71484,-11.32227 0.041,-0.90039 0.20312,-4.83398 -0.92578,-0.43164 -1.11328,-0.86328 -0.0488,-0.88867 0.26758,-0.39063 0.42383,-2.10156 0.85351,-0.89453 0.22461,-0.45508 0.13086,-0.27539 0.61133,-0.23438 1.0957,-2.94726 1.10547,-1.16797 0.33399,-0.0957 0.29296,-0.77539 0.40625,-0.1836 -0.0254,-0.32031 -0.5039,-0.98047 -0.56446,-0.56641 -0.21289,-1.43554 -1.19726,-0.89649 -0.57031,-0.42187 -0.41407,-0.89063 0.29688,-4.76757 0.24609,-0.41016 2.86328,-4.79102 4.16602,-6.95508 1.16992,-1.62695 0.0859,-0.59179 0.85547,-1.2129 0.15625,-0.28515 3.77343,-6.78321 0.002,-0.01 0.35547,-0.63672 1.35742,-0.64453 2.41797,-0.62695 1.14843,-0.30078 0.43164,-0.32032 0.85352,-6.62304 2.48633,-2.89258 0.17969,-0.24219 3.00586,-4.07617 1.48046,-2.38086 -1.76953,-2.61328 -0.4414,-0.8418 -0.0488,-0.5332 -0.0215,-0.19727 0.83008,-7.71484 1.02539,-3.92773 0.16406,-0.4961 0.66016,-1.99609 0.0996,-3.01172 0.44727,-1.44141 0.40625,-0.59375 0.58007,-1.59765 0.31836,-3.47657 0.78711,-8.64257 1.61133,-3.50391 1.82031,-3.96484 0.56055,-1.60157 0.93945,-1.91601 0.38477,-1.25586 1.29297,-2.08399 0.29101,-0.47656 0.25977,-0.41601 0.19531,-1.82227 1.33399,-1.34961 0.33007,-0.68555 0.13672,-0.61914 -0.006,-1.29882 1.31055,-1.57813 0.78711,-0.48047 1.06055,-0.98633 0.5039,-1.0625 0.14844,-0.30664 0.58789,-5.58984 0.33789,-0.89063 0.12305,-1.96093 1.38867,0.49609 0.70117,0.5 0.5293,1.18164 0.88672,0.95313 1.23437,-3.03711 3.3125,-4.29688 0.86719,-0.80078 0.79492,-1.8418 0.88867,-0.83789 1.19141,-0.45508 2.92578,-0.83007 2.60352,-0.004 0.45117,-0.23828 0.79687,-1.01758 0.3379,-1.18946 0.0273,-0.98046 -0.32031,-1.26954 -1.16602,-1.96093 -1.45117,-2.34375 -0.29492,-1.10743 0.19336,-0.66601 0.96289,-0.58594 0.74414,-1.42773 0.75586,-0.58399 0.5664,0.16797 1.25391,0.29688 1.88086,-0.0332 0.74414,-0.3125 3.04687,-1.71875 0.87891,-0.26758 1.20508,-0.93555 0.17578,-0.23047 -0.10352,-0.76562 -0.16992,-3.16407 -0.22851,-1.15625 0,-1.52734 -0.13672,-3.5332 -0.29883,-2.63477 -0.8125,-3.51758 -0.36523,-1.36328 0.0293,-0.86523 -0.13086,-0.97656 -0.68164,-3.86328 -0.8457,-3.9961 -0.65234,-1.94531 -0.2754,-1.47656 -0.38867,-1.31836 -0.25195,-1.36328 -1.29297,-7.19922 -0.0469,-1.39063 -0.27344,-1.29297 -0.16992,-1.75195 -0.66992,-3.11133 0.0488,-0.96094 -0.2207,-0.8164 -1.12891,-6.93164 -0.25586,-0.43164 -0.11914,-0.19922 -0.59179,-0.0781 -0.56641,0.10156 -1.61523,0.84961 -0.6875,-0.19336 -0.0859,-0.15234 -0.26367,-0.45508 0.082,-0.50391 0.64062,-0.71875 0.63477,-0.12695 0.53906,-0.35352 0.86524,-0.99414 0.17187,-0.61914 -0.33203,-0.88086 -0.61328,-0.99414 -0.78711,-0.73828 -0.44727,-0.71875 -0.20898,-0.63476 -0.3418,-0.65235 -0.0391,-0.2832 0.10351,-3.51367 -0.10546,-0.70703 -0.39454,-0.51563 -2.33984,-1.49023 -0.44336,-0.60547 -0.35742,-1.1582 0.0488,-2.91016 0.008,-0.46484 0.67969,-1.40235 0.0391,-0.3418 -0.21484,-0.43164 -0.36524,-0.20117 -1.00781,-0.59765 -1.00781,-0.32422 -1.45508,-0.041 -0.66016,-0.2168 -0.32422,-0.17969 -3.67968,-0.27734 -0.70899,-0.19727 -0.0723,-0.0195 -0.77539,-0.39843 -0.89844,-0.82618 -0.74805,-0.96875 -0.21875,-0.91015 0.006,-0.68164 1.04102,-1.75196 0.35547,-1.83007 -0.0586,-0.82032 -0.41406,-1.58984 -0.58594,-0.99219 0.69141,-0.76367 2.03515,-0.5625 0.85352,-0.78711 0.88672,-1.08984 1.11328,-2.98242 0.39648,-0.58008 1.34375,-1.34571 1.19336,-0.63086 1.46289,-0.77929 0.4961,-0.39453 0.34961,-0.59961 0.16992,-0.91407 -0.084,-0.80078 -0.35546,-0.83593 -0.48828,-0.60743 -0.25391,-0.3164 -0.62109,-0.28321 -1.07032,-0.14453 -1.7832,-0.74218 -0.69922,-0.67188 -0.21289,-0.66211 -0.13281,-1.04687 0.10937,-1.45899 0.24219,-0.57617 1.49023,-0.70898 0.89258,-1.17774 1.02539,-1.31836 0.38868,-0.98437 0.12304,-0.71094 -0.0664,-1.43555 -0.29102,-0.82227 -0.88086,-2.49023 -0.0937,-1.45703 0.21875,-2.63477 0.0859,-0.99804 -0.0566,-1.03711 -0.75977,0.48046 -0.94336,0.90626 -1.72656,2.35937 -0.63867,1.13281 -0.44727,0.30469 -1.72461,2.67969 -0.96093,0.84179 -0.77539,-0.0996 -1.58399,-0.76757 -1.13477,-0.93555 -1.36914,-1.38672 -2.60742,-2.7793 -0.78906,-0.96289 -2.11328,-1.90039 -3.19531,-4.0625 -0.94336,-1.53515 -1.44141,-2.70899 -1.66211,-3.45703 -0.0937,0 -0.77344,-1.23828 -1.46484,-2.54883 -1.12109,-2.50781 -0.70703,-2.24414 -1.03321,-2.48828 -1.1289,-1.759768 -0.60157,-0.55469 -0.43359,-0.0371 -2.50977,2.037108 -0.53711,0.39649 -1.16211,-0.0644 -0.60156,-0.37696 -1.34179,-2.117188 -0.7793,-1.33203 -0.37109,-0.31054 -0.27149,-0.99805 -0.0606,-1.96094 -0.54882,-1.01367 -0.74414,-0.80859 -0.68946,-1.35352 -0.53515,-1.65625 -0.49024,-0.49023 -1.14648,-0.36719 -0.84375,0.0879 -1.90039,0.49609 -1.8711,-0.0527 -0.27539,-0.19727 -0.58984,-0.78711 -0.14063,-0.38671 -0.004,-1.14258 0.0996,-1.73438 -0.0918,-1.02148 0.18945,-1.87695 -0.30078,-1.25 -0.56836,0.01 -0.27734,0.26758 -0.52735,0.0254 -0.48046,0.34961 -0.17969,1.21289 -0.87305,0.95312 -0.16992,0.0254 -0.87305,0.13086 -0.40625,0.23243 -0.0976,0.12304 -0.74805,0.96485 -0.41992,0.7832 -0.97071,0.45508 -0.74023,0.85547 -0.86523,1.00195 -0.22266,0.13867 -0.76563,-0.48828 -0.69921,0.33594 -1.48047,-0.0645 -0.0781,0.0488 -0.28125,-0.22265 -0.37109,-0.35547 -0.12695,-0.61133 0.81054,-1.57031 0.14258,-0.71289 -0.0606,-0.65625 -0.44726,-0.65235 -0.50391,-0.082 -1.39648,0.75781 -0.85352,0.40821 -0.62109,-0.0547 -0.69727,-0.73828 -0.99023,-0.54883 -2.99024,-1.23633 -0.73242,0.041 -1.58594,0.46679 -1.25781,-0.26953 -2.64062,-0.89843 -0.91602,-0.18555 -0.91016,0.13086 -1.27539,0.0742 -1.16601,-0.17969 -1.91406,0.0449 -2.55469,-0.19336 -1.89453,0.0859 -1.08399,0.32031 -1.29687,0.21289 -0.63672,0.0371 -0.88281,-0.87109 -1.125,-1.29492 -1.23243,-1.11719 -0.92578,-0.43359 z M 433.63281,542.39999 c -0.63511,-0.0524 -1.15665,0.39633 -1.59765,0.84179 -0.52947,0.5353 -1.16308,0.93596 -1.76954,1.37695 -0.55964,0.40731 -1.59733,0.28389 -2.21679,0.11329 -0.34484,-0.095 -0.67609,-0.16952 -0.99805,-0.0117 -0.37605,0.1862 -0.76814,0.20703 -1.18164,0.20703 -0.72816,0 -1.31601,0.67817 -1.98437,0.91797 -0.73441,0.2632 -1.29824,0.44726 -2.09766,0.44726 -0.3516,0 -0.68103,-0.10216 -0.99414,-0.25976 -0.45303,-0.2293 -0.64904,-0.3399 -1.08594,-0.0586 -0.31935,0.2039 -0.43814,0.39707 -0.81055,0.53907 -0.40621,0.156 -0.78052,-0.039 -1.10351,-0.25 -0.68812,-0.4494 -1.03509,-1.07203 -1.94531,-0.82813 -0.70839,0.1888 -1.60924,-0.0102 -2.16993,0.50977 -0.25382,0.2346 -0.27401,0.67636 -0.32031,1.00976 -0.0661,0.4712 -0.20548,0.71886 -0.59765,0.97266 -0.33444,0.2164 -0.65905,0.10411 -0.98829,-0.0215 -0.0947,-0.037 -0.0881,-0.4061 -0.10156,-0.5039 -0.0276,-0.1971 -0.18416,-0.3194 -0.31054,-0.47071 -0.13732,-0.1634 -1.47844,1.09101 -1.70313,1.19141 -0.65692,0.2933 -1.40362,0.56595 -2.14063,0.40625 -0.33026,-0.072 -0.76138,-0.2539 -1.09374,-0.2539 -0.42805,0 -0.76762,-0.0105 -1.17383,-0.16211 -0.504,-0.1872 -1.06767,-0.39778 -1.61328,-0.39258 -0.55445,0 -1.07682,0.23231 -1.63282,0.25781 -0.23198,0.01 -0.51345,-0.10143 -0.73242,-0.0527 -0.31104,0.07 -0.47101,0.37885 -0.60937,0.62695 -0.11084,0.19728 -0.54662,0.217 -0.66016,0.0449 l 0,3.23242 1.56055,-0.15625 2.04101,0 1.0293,0 2.00586,-0.36133 4.75586,-0.51757 3.54492,-0.16211 1.00781,-0.11914 9.66211,-1.12891 2.68164,-0.12305 3.90821,-0.18164 2.52539,-0.54492 1.58007,-0.12305 4.28321,-0.66601 7.52929,-1.16016 2.66407,0.0508 -0.002,-0.30078 0.1211,-0.0918 c -0.0343,-0.073 -0.0696,-0.15007 -0.10547,-0.23437 -0.0947,-0.2184 -0.66513,-0.25424 -0.87109,-0.27344 -0.33705,-0.033 -0.65527,-0.14326 -0.98243,-0.22656 -1.33202,-0.3401 -2.55485,-0.75615 -3.8125,-1.31055 0.28606,-0.1238 0.69094,-0.35481 1.00977,-0.34961 0.38021,0 0.68785,0.34446 1.04101,0.38086 0.57369,0.058 1.83093,-0.0588 1.88086,-0.86328 0.0187,-0.3079 0.0515,-0.2928 -0.24023,-0.375 -0.19036,-0.053 -0.35171,-0.0839 -0.54883,-0.10351 -0.37345,-0.037 -0.74362,-0.11524 -1.11914,-0.11524 -0.78174,0 -1.56485,0.076 -2.33984,0 -1.50574,-0.1482 -2.97484,-0.0401 -4.47071,-0.14844 -0.40829,-0.03 -0.77164,0.0247 -1.16796,0.10743 -0.17686,0.037 -0.35168,0.0953 -0.5254,0.14453 -0.13679,0.038 -0.27975,-0.18327 -0.42382,-0.19727 -0.81295,-0.081 -1.41346,0.32422 -2.20508,0.32422 -0.83739,0 -1.34037,-0.31323 -2.10547,-0.54883 -0.0954,-0.0295 -0.18857,-0.0472 -0.2793,-0.0547 z m 93.79102,12.21484 0,0.004 c -0.18402,0.01 -0.3711,0.0445 -0.5625,0.11133 -0.40257,0.1409 -0.61574,0.33027 -0.79883,0.72657 -0.21533,0.4666 -0.39624,0.62136 -0.87891,0.75976 -0.41973,0.1212 -0.64676,-0.0267 -1.04101,0.2207 -0.2845,0.1769 -0.43466,0.60504 -0.5586,0.89844 -0.0831,0.1971 -0.16136,0.48695 -0.18945,0.78125 l 1.57617,0.32031 5.50586,0.63086 0.70508,0.082 1.83008,0.26171 3.52734,0.80079 1.17383,0.10546 1.75586,0.44336 0.002,-0.01 -0.0664,-1.36133 c -0.24446,0.032 -0.48907,0.0678 -0.73633,0.0918 -0.68968,0.07 -1.52354,0.21523 -2.07227,-0.29297 -0.33964,-0.3141 -0.45667,-0.53086 -0.57422,-0.97656 -0.0993,-0.3735 -0.22272,-0.64094 -0.64453,-0.70704 -0.50608,-0.081 -0.48352,0.22974 -0.71289,0.55274 -0.19817,0.2804 -0.63844,0.70278 -0.94531,0.30078 -0.2715,-0.3547 -0.092,-0.69114 -0.39258,-1.02344 -0.24186,-0.2663 -0.8153,-0.10169 -1.14453,-0.0547 -0.97627,0.1384 -0.67837,-1.16102 -1.04297,-1.64062 -0.16176,-0.2111 -0.70529,-0.4235 -0.95703,-0.4375 -0.45614,-0.024 -0.67715,-0.15079 -1.10156,-0.27149 -0.57463,-0.16419 -1.10424,-0.3472 -1.65625,-0.3164 z m 20.39648,4.33789 0,0.002 0.0156,0.0117 0.0801,0 c -0.0314,-0.01 -0.0636,-0.0117 -0.0957,-0.0137 z"
     id="rect4"
     inkscape:connector-curvature="0" />
  <path
     style="fill:#f77f00"
     d="m 192.35742,7.0347518 -0.24023,0.61133 -0.69922,0.67383 -0.66602,1.5625 0.17383,0.3007802 0.66797,-0.1933602 0.33984,0.3281202 -0.25976,0.38086 -0.48242,0.24219 -1.33008,0.27539 -0.42188,0.37695 -0.14648,0.48243 0.13086,0.61718 -0.48047,1.26954 -0.008,0.36523 0.17968,0.18359 0.5918,0.082 0.24414,0.39063 -0.1289,0.60742 -0.29297,1.34961 0.17968,1.74023 -0.10156,0.50196 0.61328,1.28711 -0.13867,0.24609 -0.85351,0.25977 -0.51954,-0.12305 -0.20312,1.25586 0.39062,1.25976 -0.7207,1.81446 0.22461,0.2793 0.56836,0.14843 0.041,0.25 -0.47852,1.2461 0.19727,0.3457 0.41601,-0.12695 0.87305,1.0664 0.69922,0.26172 0.55273,-0.26562 0.45508,0.0781 0.42969,0.28125 0.0488,0.16016 0.041,0.13672 -0.26367,0.58984 0.1582,0.23047 0.60938,0.12695 0.34961,-0.15625 0.34179,0.0547 0.10547,0.32031 -0.1582,1.27539 -0.57031,1.1543 -0.81641,1.01367 -0.71484,0.39844 -0.21485,0.41406 0.125,0.23438 -1.06836,1.16992 -0.66211,1.53906 -0.0488,0.11524 -0.57618,0.44531 -1.21875,0.41601 -0.87109,0.008 -0.61719,-0.20118 -0.35937,-0.11523 -1.32422,-1.48242 -4.0586,-1.68946 -0.0703,0.13477 -0.9375,0.0781 -2.27148,0.69336 -2.29297,0.37696 -1.83203,0.30859 -1.48242,1.29688 -1.07227,0.008 -3.30078,-0.73828 -1.16602,0.0488 -2.28711,0.46484 -0.70703,-0.30859 -0.61328,-0.19141 -0.48437,0.31055 -1.39844,1.78125 -0.125,0.11914 -0.96289,0.89062 -1.73047,2.75781 -0.17187,0.75 0.20312,1.51172 0.53711,0.60352 0.23437,0.89453 0.85352,1.01758 0.73633,1.19922 0.3457,1.16992 0.0644,0.22851 0.13868,1.4629 -0.0605,1.04882 -0.35938,0.97657 -0.45898,0.3125 -0.14648,0.29492 -3.96485,2.58593 -1.37695,0.75586 -0.98633,0.18946 -0.52539,-0.18164 -0.17578,-0.0606 -1.5918,-1.80273 -0.625,-1.01758 -0.75,-1.88477 -0.48633,-0.84961 -0.69922,-0.69726 -2.86914,-0.52149 -1.56054,-0.99609 -0.20313,-0.12695 -1.68945,0.0859 -0.75,-0.16797 -0.71484,-1.0625 -0.95508,-0.42773 -2.26172,0.2168 -1.50391,-0.22657 -0.95508,-0.24218 -0.67773,-0.51172 -1.08984,-0.36133 -0.74805,-0.0332 -0.73633,-0.0332 -2.15234,0.51368 -0.38672,-0.23438 -0.83594,-2.01953 -0.20312,-0.16406 -2.22852,0.72265 -1.4043,1.21094 -1.18554,-0.15234 -1.17969,-0.56641 -0.95899,-0.0156 -0.86914,0.24218 -0.32226,-0.0547 -0.53516,-0.80274 1.33594,-2.38086 0.72656,-3.11523 -0.16992,-2.42578 -0.85742,-0.58594 -1.07227,-0.32813 -0.76757,-0.42187 -0.93946,-0.084 -1.71875,-1.07421 -0.56445,-0.19336 -0.6543,-0.80469 -0.5332,-1.15234 -0.95899,-4.58008 -0.17773,-0.82227 -0.38281,-0.21289 -0.51953,-0.46289 -0.74805,-0.23828 -1.41406,-0.20117 -0.59375,-0.28321 -2.18946,-0.16797 -0.45507,0.17969 -1.36133,0.54688 -0.64649,0.58593 -1.74218,2.16797 -0.71094,0.24024 -0.66406,0.0137 -1.855473,-1.14648 -0.597656,-0.0274 -1.650391,0.45508 -0.845703,-0.0117 -0.449219,-0.34961 -0.0098,-0.11914 -0.144531,-1.98242 -0.517578,-0.62305 -0.478515,-0.32422 -0.951172,-0.47265 -0.480469,0.13086 -0.466797,0.70117 -0.359375,1.18359 -0.90625,1.44922 -1.207031,1.16797 -0.984375,0.51367 -1.015625,0.23047 -2.148438,0.47852 -0.958984,0.33398 -0.09961,0.31836 -0.166015,0.27539 -0.480469,0.18945 -0.734375,1.74024 -0.0039,0.43555 0.199219,0.22851 0.888672,-0.008 0.33789,0.48437 0.03711,0.57227 -0.164063,0.42969 -0.892578,0.30859 0.105469,0.34375 0.544922,0.30469 0.291015,0.16406 0.236328,1.18945 -0.117187,0.43164 -0.326172,0.40625 -0.548828,0.19727 -1.398438,0.0293 -0.503906,0.28711 -0.255859,0.38476 0.236328,1.10156 -0.166016,0.45508 -0.228515,0.13086 -1.027344,-0.0371 -0.28125,0.27149 -0.142578,0.57031 0.199218,0.41015 1.458985,0.13477 0.224609,0.44141 -0.576172,0.37695 -0.236328,0.63477 -0.642578,0.3125 -0.576172,0.49218 -0.484375,0.13282 -0.417969,0.38086 -0.523437,0.17578 -0.556641,0.8164 -0.349609,0.19727 -0.898438,2.43359 -0.582031,0.65235 -1.050781,0.30859 -1.289063,0.98437 -0.65039,0.85938 -0.933594,0.98828 -0.769531,0.12305 -2.316407,0.36133 -0.759765,0.28711 -1.591797,1.65039 -1.496094,0.93945 -1.050781,0.32812 -1.09375,-0.0137 -1.771484,-0.77539 -1.203125,0.0508 -0.195313,0.0449 -0.537109,1.04688 -0.210938,0.81641 -1.753906,3.33593 -0.517578,1.43164 -0.515625,1.0625 -0.783203,0.83789 -2.027344,1.52735 -3.345703,1.44531 -1.945313,0.57031 -0.759765,0.60742 -0.615235,0.82813 -1.820312,2.45117 0.04102,0.41406 -0.390626,0.19336 -0.113281,0.76758 -0.113281,0.77539 -1.033203,0.57813 -0.275391,0.29492 -0.117187,0.36133 0.15039,0.48437 0.658203,0.48828 0.5,0.14063 1.09961,-0.78516 0.570312,0.0293 0.40625,0.50781 -0.04102,1.32227 -0.277344,0.33984 -0.294922,0.0664 -0.634765,-0.28321 -1.783204,0.76758 -1.552734,-0.24023 -0.275391,0.38476 0.08984,0.25196 1.267578,0.5664 0.06445,0.17969 -0.298828,0.27149 -0.755859,0.3125 -0.232422,0.45117 0.458984,1.44531 0.431641,0.32422 0.341797,-0.0176 0.632812,-0.45898 0.421875,-0.30469 0.871094,-0.0566 0.109375,0.33984 -0.28125,0.43164 0.703125,0.35352 0.337891,0.5039 -0.0293,0.38672 -0.384766,1.46094 -0.205078,0.13086 -0.316406,-0.11523 -0.451172,-0.4629 -0.207031,0.13477 -0.332031,1.15625 0.06445,0.41406 0.541015,0.3711 0.751953,0.0312 0.708985,-0.28516 0.550781,-0.043 0.404297,0.16992 0.382812,0.38868 0.03906,0.17578 0.130859,0.58007 -0.162109,0.64063 0.06055,0.36523 -0.417969,0.67579 0.154297,0.25585 0.451172,0.32032 0.523437,0.0312 -0.06445,0.19726 -0.285156,0.83008 0.05664,0.89063 -0.169921,0.54492 -0.519532,-0.20508 -0.451171,-0.17383 -0.25586,0.47656 0.06445,0.29688 0.857422,0.60351 -0.0293,0.25391 -1.072265,0.41797 -0.01563,1.1875 0.710937,1.42187 -0.183594,0.18164 -1.234375,0.14258 -0.183593,0.32032 0.605468,0.50976 -0.183593,0.36914 -0.398438,0.78906 0.515625,0.597658 -0.279297,0.58594 0.384766,2.08594 -0.07227,0.3164 -0.117187,0.29492 -0.638672,0.0371 -0.470703,1.13672 0.314453,0.43945 -0.0078,0.63672 0.375,0.84961 -0.113281,0.22852 -0.457031,0.0391 -0.136719,0.17969 0.654297,0.2832 0.222656,0.43555 -0.0078,0.45898 -0.488282,0.76758 -0.08008,1.02735 -0.845703,0.51562 -0.398437,0.58594 -0.544922,0.0176 -0.04883,0.22656 0.789062,0.78711 0.06445,0.23047 -0.388671,0.4707 -0.529297,1.88867 0.654297,0.60352 0.191406,0.93554 -0.207032,0.41016 -0.345703,0.0859 -0.183593,0.25 0.109375,0.57226 -0.121094,0.40821 0.439453,1.35156 -0.236328,0.58984 0.06445,0.45508 0.658203,0.10352 0.951172,0.60351 -0.300781,0.35938 -0.169922,0.63867 0.421875,0.82812 -0.07227,0.26954 0.535156,0.85546 0.455079,0.36914 0.08203,0.57032 0.699219,0.73828 0.08203,0.64062 0.357422,0.59766 0.316406,0.14062 0.169922,0.61914 0.5,0.25782 0.263672,0.8457 1.503906,1.73242 0.244141,0.52539 0.74414,0.44336 0.496094,0.68946 0.798828,1.10742 1.308594,0.15625 3.507812,-0.13867 1.181641,0.35546 1.154297,0.10743 0.431641,0.25586 1.478515,-0.16602 2.519531,-0.99219 0.527344,-0.27148 2.105469,-1.06641 2.134765,0.32422 0.230469,-0.0664 0.462891,-0.72265 0.167969,-0.79883 0.205078,-0.33789 1.074219,-0.0566 0.677734,0.28125 0.726562,0.0352 0.78125,-0.46874 0.109375,0.87304 -0.142578,0.3418 -0.496093,-0.0996 -0.09766,0.48047 0.08203,0.43554 -0.210937,0.45118 0.158203,0.27929 -0.210937,0.36133 -0.144532,0.86524 -0.28125,0.49804 -0.386718,1.70704 -0.898438,0.87695 -0.353515,0.83789 -0.353516,0.75195 -0.455078,0.44727 -0.09766,0.36523 0.195312,0.57422 -0.0078,2.39258 0.169921,0.82422 -0.259765,1.34375 -0.38086,1 -0.390625,0.29297 -0.544921,1.38281 -0.552735,0.63086 -0.894531,2.1543 -0.998047,1.81445 -0.0293,0.43164 0.304688,1.18945 0.300781,1.39649 0.291015,0.45508 0.195313,0.32812 0.699219,0.60352 2.546875,1.51367 1.142578,-0.97071 1.699219,-1.02734 1.271484,-0.0781 0.677734,0.37305 0.105469,0.5957 -0.703125,1.56836 0.134766,0.25 1.044922,0.15234 1.490234,0.8418 -0.09766,0.41797 0.107422,0.71094 0.380859,0.41406 0.654297,0.23828 1.320312,1.63672 1.015625,0.38281 0.699219,0.50977 0.886719,0.0566 0.625,0.76367 1.332031,0.49609 0.496094,0.57422 -0.07422,0.2793 -0.21875,0.0977 -1.447265,0.63867 -1.046876,0.16602 -1.24414,-0.42578 -1.226563,-0.22266 -1.130859,-0.45117 -0.222656,-0.22852 -0.90625,-0.26367 -2.738282,1.12891 -0.984374,0.89062 -0.285157,0.25781 -1.107422,1.87696 -3.041015,1.21875 -1.007813,0.96679 -1.177734,1.42188 -0.244141,1.52539 0.308594,1.86328 0.04883,0.2832 -1.300781,2.44922 -1.527344,4.08399 -0.878906,3.16015 -0.287109,1.81055 -0.472657,2.92578 0.126953,1.12109 1.398438,2.36329 0.65039,0.71484 1.44336,1.00195 0.970703,0.37696 1.455078,0.0156 0.429688,-0.16211 2.191406,-0.83008 1.294922,-0.23242 1.544922,0.0898 2.121093,1.07421 1.136719,-0.008 2.162109,-0.72656 0.861329,0.14844 0.537109,0.28711 0.345703,0.17969 0.464844,0.50976 0.423828,0.75977 0.146484,0.98047 0.552735,1.32812 0.376953,0.55469 0.191406,0.86914 1.238281,2.68555 0.195313,0.71093 0.914062,1.51368 0.285157,0.75781 0.09766,0.29687 0.992187,3.04492 0.125,0.84571 0.726563,1.83398 0.24414,0.32422 0.232422,1.39649 0.222657,0.13867 0.93164,3.52148 0.3125,0.2793 0.146485,0.31836 0.470703,1.05469 1.1875,1.20312 0.486328,1.00977 0.164062,1.50586 -0.07422,0.52539 -0.601563,0.60742 -0.53125,0.90234 -0.398437,1.06836 -0.414063,0.45117 -0.142578,0.63672 0.121094,0.77539 0.691406,1.23633 0.699219,1.9082 1.121093,0.83594 0.3125,0.41406 0.171876,0.84571 0.847656,1.03906 -1.04661,0.2832 -1.089844,-0.082 -1.380859,0.11328 -0.640625,0.22266 -0.613282,-0.0977 -0.568359,0.19727 -2.121094,-0.375 -2.771484,0.14453 -0.650391,-0.5586 -0.185547,-0.49218 -1.035156,-2.71289 -1.589844,-3.21289 -0.789062,-1.99414 -0.515625,-0.46485 -0.541016,-0.19336 -0.445312,-0.66406 -0.447266,-0.30469 -0.748047,-0.0371 -0.503906,-0.13476 -0.175781,-0.0527 -0.44336,-0.78125 -0.4375,0.33789 -0.326171,0.58594 -0.263672,1.22852 0.662109,3.22461 -0.1875,0.3164 -1.441406,1.09961 -0.480469,0.17188 -2.351562,-0.14258 -1.007813,0.44336 -0.08203,-0.43555 0.333984,-1.11133 -0.06641,-0.23047 -0.775391,0.2168 -0.410156,-0.0742 -1.195313,-0.2207 -0.07227,-1.18555 -0.138672,-0.14062 -1,0.17187 -0.173828,-0.41406 0.353515,-1.11133 0.226563,-0.0898 0.378906,0.64258 0.183594,-0.0859 -0.03711,-0.66406 -0.666016,-1.14844 -0.470703,-0.3457 0.839844,-0.19727 0.164062,-0.15625 -0.224609,-0.29883 -1.353516,-0.49609 -0.873047,-0.96875 -0.451172,0.0371 -0.740234,0.69726 -0.699219,-0.0996 -0.568359,0.12891 -0.447266,-0.55078 -0.316406,0.0156 -0.707031,0.53906 -0.234375,0.70508 -0.460929,0.24218 -0.539062,-0.14453 -0.72461,-0.41797 -0.474609,-0.0293 -0.681641,0.21875 -1.259765,-0.74414 -0.837891,-0.082 -0.662109,0.22266 -0.699219,-0.16992 -0.609375,-0.32032 -0.425781,-0.21679 -0.427735,-0.37305 -0.519531,-0.20899 -0.439453,0.2754 -0.714844,0.44726 -0.488281,0.14258 -1.328125,-0.79102 -0.296875,0.17969 -0.511719,1.20313 -1.580078,1.11914 -0.126953,-0.80078 -0.429687,-0.0723 -0.41211,0.2207 -0.449219,-0.0742 -0.492187,-0.61914 -0.410156,-0.0977 -0.365235,0.47461 -0.386719,0.0879 -0.230468,0.54492 -0.361328,-0.20899 -0.0625,-0.43554 0.06641,-0.1836 0.04883,-0.13671 -0.130859,-0.25 -0.431641,-0.0527 -0.730469,0.44726 -0.560547,-0.68945 -0.291015,-0.11914 -0.544922,0.0859 -0.316406,-0.13867 -0.976563,-0.17383 -0.132812,0.11133 0.15039,0.61914 -0.902344,1.35546 -0.748046,0.7461 -0.154297,0.15234 -0.601563,0.22071 -0.210937,0.23046 0.283203,0.84571 -0.203125,0.13476 -0.771485,-0.0742 -0.292968,-0.14257 -0.04102,-0.52539 -0.154297,-0.004 -0.527343,0.49609 -0.16211,0.38476 0.08008,0.64258 -0.121094,0.36524 -0.06445,0.19922 -0.207031,0.21484 0.572266,1.32812 0.1875,1.48633 -0.04883,0.63672 0.154296,1.26367 1.076172,3.41602 0.01563,0.56836 -0.189453,0.59375 -0.115234,0.35937 -0.90625,1.74414 0.03711,0.75586 0.683594,1.9668 -0.105469,1.11523 0.144532,0.8711 -0.25586,0.70117 -1.328125,1.28516 -0.236328,0.65625 0.07422,1.75586 0.132812,0.25585 0.265625,0.47852 1.339844,0.25977 0.515625,-0.72657 0.07813,-0.008 0.511719,-0.0547 1.15039,0.64844 1.765625,2.07227 0.96875,0.67382 1.263672,0.33204 3.960938,0.0254 1.519514,0.73438 0.707031,0.47656 0.195313,0.63868 0.789062,0.44335 0.455078,0.5918 1.982422,0.55274 0.435547,-0.29102 1.287109,-1.57617 0.796876,-2.1582 0.365234,-0.33594 0.470703,0.0977 0.748047,1.14453 0.345703,0.5293 0.564453,0.12304 0.365234,-0.49609 0.707032,-0.40234 0.277344,-0.31641 0.568359,0.008 0.466797,0.57617 0.03711,0.91016 -0.259765,0.72656 -1.283204,1.24023 -0.09961,0.63477 0.232422,1.50781 -0.167969,0.83985 -0.599609,0.90429 0.105469,0.50391 0.414062,0.4668 -0.421875,1.24804 0.373047,0.82422 1.714844,0.70703 0.601562,0.50977 0.585938,0.23437 1.132812,1.72266 0.613281,1.46875 0.91211,0.26367 0.738281,0.21289 -0.0078,0.32032 -0.369141,0.85742 0.402344,0.52929 -0.04102,0.66797 -0.01563,0.26758 0.128906,0.27539 -0.255859,0.56641 -0.544922,0.0156 -0.580078,-0.57813 -1.285156,-0.40234 -0.933594,0.64844 -0.203125,-0.0488 -0.175781,-0.70899 -0.455079,0.13086 -0.109374,-0.14062 0.447265,-1.29297 -0.179687,-0.36524 -1.105469,-0.42187 -0.292969,0.0605 -0.640625,0.65234 -1.421875,-0.10547 -0.527344,0.33203 -0.185546,-0.0488 -0.904297,-0.25976 -0.660157,0.2832 -0.601562,0.42774 -0.400391,0.29101 -0.580078,1.15235 0.998047,1.10156 -0.865234,2.94726 -0.353516,1.18946 -0.925781,1.94531 -0.728516,2.25586 -1.132812,1.74023 -1.279297,1.38086 -0.826172,1.53907 -0.158203,1.02539 0.248047,1.38671 3.095703,2.48243 0.203125,0.20507 0.919922,0.92774 0.08008,0.50976 0.06445,0.36524 -0.105469,0.92383 -1.441406,2.15039 -0.515625,1.74414 -0.271485,2.87695 -0.720703,0.61133 -1.117187,0.25781 -1.076172,0.24805 -1.59375,1.73437 -0.373047,3.75196 -0.511719,0.61133 -0.820312,0.51367 -1.439453,2.40429 -0.01563,0.70508 -0.05664,3.09571 -0.724609,1.49023 -1.335938,2.15039 -1.125,0.91992 -0.970703,0.19922 -1.470703,-1.59961 -0.556641,-0.20898 -2.138671,-1.55078 -3.15625,-0.93946 -0.296876,-0.2832 -0.515624,-0.48828 -0.199219,-0.66992 0.105469,-0.51758 -0.40625,-0.46289 -1.941407,0.19726 -2.357422,2.04297 -1.019531,0.40625 -1.224609,0.20117 -1.019531,-0.61914 -0.138672,-1.32226 -0.05664,-0.5293 -0.298828,-0.92773 -0.8125,-0.51563 -1.224609,0.0977 -1.177735,0.29883 -2.304687,2.15039 -3.076172,3.16797 0.755859,1.80273 0.759766,0.98243 2.238281,0.93554 1.951172,2.3125 0.02539,0.38281 0.02344,0.42579 0.556641,0.96093 -0.158203,0.68164 0.398437,1.28125 0.105469,1.04688 -0.529297,1.66016 1.078125,1.96679 0.492187,1.52735 0.01563,0.84375 -0.179687,1.06054 -0.03125,0.2168 0.583984,4.33008 0.382813,0.91601 1.300781,1.74024 1.210937,2.05468 0.03906,0.68555 0.658203,0.11524 0.154297,0.23046 0.05859,0.7461 0.0078,0.0996 -0.115234,0.52148 -0.388672,0.52149 -0.02539,0.41015 -0.429687,0.5 0.357422,0.84571 1.105469,0.45898 1.011718,1.03516 0.425782,0.54882 0.08594,0.79688 0.539063,0.50586 0.683593,-0.20117 0.38086,0.1582 0.65039,0.66601 0.386719,-0.0215 0.173828,0.70703 0.748047,0.0527 0.357422,0.5 0.341797,0.0488 0.292968,-0.38476 0.56836,0.004 0.222656,0.42968 -0.230469,1.05078 0.259766,1.39258 -0.203125,0.47461 -1.345703,1.09375 -0.134766,0.10547 -0.136719,0.43555 0.263672,1.71093 -0.759765,2.86915 -0.0039,0.63476 0.447266,1.03125 -0.07422,1.02149 0.777344,2.24023 0.05859,1.50781 0.205078,0.33985 0.140625,0.0371 0.488281,0.12695 0.248047,0.23047 -0.203125,0.3164 0.335938,0.27344 0.111328,0.39063 -0.271485,0.45507 -0.705078,0.42774 -0.117187,0.98047 -0.203125,0.20507 -0.613282,0.20118 -0.93164,1.04297 -0.703125,-0.0937 -0.361328,0.33984 -0.816407,0.11133 -0.316406,0.35937 0.335938,0.66602 -0.07227,0.47656 0.382813,0.86914 0.03516,1.07227 0.265625,1.27539 0.605469,1.05664 0.01758,0.52539 -0.181641,0.38476 -0.386719,0.29102 -0.974609,0.043 -0.154297,0.22851 0.308594,0.54493 -0.679688,0.40625 -0.136718,0.57226 -0.07031,0.1836 1.365234,2.40039 0.203126,0.11523 0.435546,-0.68164 0.316407,-0.11523 0.105468,1.39257 -0.572265,0.82032 -0.8125,0.8125 -0.232422,0.52539 0.695312,1.53125 -0.138672,0.13476 -0.583984,-0.0234 -0.300781,1.04687 -0.423828,0.27539 -0.892578,0.58203 -0.228516,0.55078 -0.0039,0.51953 0.443359,1.92188 -0.162109,0.45508 -0.269531,-0.18555 -0.08789,-0.41016 -0.251953,-0.0488 -0.31836,0.16015 -0.357422,-0.0937 -0.27539,0.22461 -0.08984,0.5 0.105469,0.80078 -0.496094,0.63672 -0.361328,-0.43554 -0.316406,0.043 -0.207031,0.77539 -0.519532,0.33985 -0.40625,0.0859 -0.390625,0.36523 0.277344,0.29492 0.04102,0.0508 0.519531,0.0449 -0.341797,0.66015 -0.429687,-0.14062 -0.31836,-0.29493 -0.316406,0.0215 -0.203125,0.35937 0.292969,0.50586 -1.748047,0.60742 -0.158203,0.43165 0.492187,0.79882 -0.203125,0.45703 0.267578,0.75391 -0.251953,0.29688 -0.455078,0.15625 -0.589844,0.8164 -0.316406,0.0684 -0.474609,-0.32422 -0.248047,0.22657 -0.435547,1.23046 -0.04883,0.13477 -0.203125,0.18164 -0.154297,-0.0234 -0.115234,-0.0215 -0.451172,-0.48047 -0.314454,0.0215 -0.451171,0.47657 -0.09961,0.52539 0.109375,0.86523 -0.136718,0.45508 -0.386719,0.27148 -0.763672,-0.13867 -0.183594,0.11133 -0.207031,0.61524 -0.560547,-0.59571 -0.251953,0.0469 -0.316406,0.75 -0.609375,0.0625 -0.228516,0.29492 -0.04883,0.20508 0.292969,0.68554 -0.56836,0.47657 -0.183594,0.0684 -0.199218,-0.16016 0.02539,-0.52539 -0.228515,-0.18359 -0.326172,0.0605 -0.2597658,0.0508 -0.390625,0.29492 -0.1777343,0.5 0.1542969,0.91211 -0.2109376,0.64063 -0.2480468,0.17969 -0.4511719,-0.4336 -0.7675781,0.22071 -0.1601563,-0.27149 0.1640625,-0.66015 -0.7402344,-0.71485 -0.4101562,0.36719 -0.044922,0.29297 0.2851563,0.9375 -0.074219,1.52539 0.4707032,0.57422 -1.0488282,1.38672 -0.080078,0.0254 -0.1855469,0.0605 -0.6738281,-0.61523 -0.9511719,-0.16797 -0.4296875,0.25 -0.296875,0.82031 0.068359,0.22657 0.7441406,0.20898 0.1113281,0.27344 -0.8164062,0.9082 -0.5976562,1.80078 -0.9511719,0 -0.6269531,-0.66406 -0.2519532,-0.0937 -0.44921872,0.22656 L 0,420.67733 l 0.04101562,0.0449 0.63476563,0.66406 0.71874995,0.25586 0.3867188,0.0742 1.0390625,-0.36133 0.515625,0.27539 1.7207031,0.0762 0.71875,0.29882 1.2382813,1.35547 1.2070312,1.9668 1.1269531,1.32812 0.1894532,0.18165 1.1796876,1.10351 0.677734,0.27539 0.22461,-0.24609 0.746093,0.13867 0.386719,-0.36328 0.169922,-1.46289 0.160156,-0.38086 0.726563,-0.88672 0.222656,-0.91992 -0.117188,-1.55469 0.22461,-0.18945 0.373047,0 1.535156,0.83398 0.878906,0.98828 1.285157,1.05469 2.005859,1.21484 0.751953,0.25782 0,0.3164 -0.03711,0.0547 -0.345703,0.51758 -1.570313,0.5 -0.236328,0.39453 0.08984,0.47852 0.810547,-0.10547 0.55664,1.64062 0.04883,0.68945 0.03711,0.52149 0.964843,1.39453 -0.322265,0.57227 -0.673828,0.0195 -0.519532,0.42773 -0.683593,0.0195 -0.673829,0.31641 1.478516,1.16992 0.451172,0.82422 0.628906,0.0488 0.548828,-1.02149 0.703125,0.0703 0.138672,-0.70508 0.248047,-0.18164 0.337891,0.23047 0.03516,0.0527 0.371094,0.54297 0.3125,0.0234 0.345703,-0.56641 0.24414,-0.0918 0.677735,0.16211 0.296875,-0.79687 0.320312,-0.36133 0.582032,0.48047 0.970703,0.50976 0.695312,0.73438 0.429688,0.0898 0.386719,-0.33789 0.511718,1.32617 0.222656,0.22657 0.228516,-0.13672 0.16211,-0.45508 1.601562,0.14844 0.3125,0.55078 0.203125,0.27344 0.566406,-0.0195 0.244141,0.29493 -0.02539,0.39062 -0.203125,0.20508 -0.634765,0.22266 -0.386719,0.41015 0.33789,0.34375 0.382813,0.0254 1.242187,0.14258 0.748047,-0.20117 0.560547,0.23047 0.519532,-0.0664 2.390624,1.47461 0.451172,0.0488 0.587891,-0.56641 0.423828,0.86524 0.316406,-0.0195 0.341797,-0.40625 0.699219,0.45898 0.515625,0.73047 0.808594,0.64453 0.289062,1.0293 0.189453,0.0293 0.261719,0.043 0.835938,-0.3164 1.605468,-0.0117 0.857422,-0.27149 0.970703,0.16797 0.5,-0.11523 1.019532,-0.85742 0.767578,0.0703 0.363281,-0.22656 0.572266,-1.04688 1.05664,0.44336 0.654297,0.0937 0.791016,-0.5 0.8125,-0.0625 0.634765,-0.0859 1.023438,-0.65625 1.017578,-0.0859 2.417969,-0.5332 0.511719,0.30078 0.789062,1.14453 0.08008,0.86524 0.341797,0.23047 0.40625,-0.56641 0.40625,0.16406 0.425781,0.52539 0.386719,-0.38671 0.292969,-0.0664 0.291015,1.16797 0.605469,0.1582 0.386719,-0.20117 0.568359,-0.86133 0.431641,-0.22461 0.425781,0.32031 0.808594,1.23438 0.560547,0.16406 0.503906,-1.32226 0.40625,0.18554 0.203125,0.34571 0.195312,1.23437 0.382813,0.0234 0.300781,-0.86524 0.47461,-0.0664 0.199218,0.27539 0.511719,1.55664 0.447266,0.88867 0.853515,0.39649 0.470704,0.77343 1.328124,0.8086 0.857422,0.29883 3.300782,3.55859 0.154296,0.3418 -0.28125,0.13476 -0.195312,0.0898 -0.880859,-0.0273 -0.38086,0 -0.390625,0.35938 0.650391,0.87109 -0.113281,0.91406 0.357422,0.66211 -0.207032,0.33985 -1.044922,0.72656 -0.203125,0.5664 0.06055,0.64063 -0.117187,2.02344 -0.13086,2.24023 0.105469,0.36524 0.455078,0.23242 0.06445,0.29687 -0.230468,0.82031 0.08594,0.48047 0.910156,-0.45117 0.25,-1.36719 0.316407,-0.22461 0.43164,-0.0449 0.564453,0.20703 1.056641,0.83008 0.142578,-0.89062 0.380859,-0.0664 0.53711,0.43555 0.34375,0.45898 0.623047,0.82617 -0.04883,0.41016 -0.544922,0.97656 -0.0293,0.34571 0.269531,0.61523 1.214844,0.66797 0.535156,0.50391 0.40625,0.78125 -0.251953,0.54492 -1.019531,0.51758 -0.296875,0.48046 0.46875,0.96094 -0.980469,1.11328 -0.138672,0.35938 0.236328,0.6289 0.05664,0.15235 0.535156,0.32422 1.626953,0.55273 0.242188,0.39063 0.246093,1.14453 0.267579,0.59179 1.861328,1.54297 1.357422,0.41993 0.693359,0.52734 0.492188,0.89258 1.599609,1.12695 0.423828,0.30078 0.853516,0.41406 0.429687,-0.0156 0.292969,-0.25 0.09375,-0.3418 -0.597656,-1.625 0.138671,-0.5 0.679688,-0.68164 0.414062,-1.20703 0.613282,-0.33594 0.267578,0.0469 0.269531,1.02734 0.01563,0.66211 -0.259766,1.3457 0.06836,0.38672 0.427734,0.0703 0.451172,-0.16601 0.158203,-0.0566 0.40625,0.16015 0.71875,0.71485 0.564453,-0.0664 0.878907,0.20899 0.90625,-0.0352 0.21875,1.00391 0.248047,0.0469 0.43164,-0.22656 0.21875,0.8457 0.269531,0.22852 0.339844,-0.2461 0.251953,-0.86523 0.16211,-0.16016 0.789062,0.0293 0.853516,0.34375 1.51954,1.61719 0.70312,0.75195 -0.0684,0.41016 -1.51172,-0.39844 -0.3164,0.45117 0.19726,0.41406 0.85742,0.13868 0.33789,0.18554 0.33008,1.16992 0.56055,0.66407 0.29297,0.77539 0.58398,0.0293 0.13867,-0.36524 0.0273,-1.0957 0.81445,0 1.04297,-0.95313 0.65039,0.30469 0.17969,0.57031 -0.13867,0.41016 -0.40235,0.26367 -0.32031,0.20898 0.1543,0.25391 1.15234,0.0273 0.35938,0.18554 1.18554,1.94922 0.65039,0.5293 0.8125,0.11914 0.1875,-1.23047 0.45508,-0.98047 -0.24414,-0.70703 0.32422,-0.73047 -0.0391,-0.66016 0.17773,-0.57031 0.3418,-0.15625 0.76758,0.25391 0.0449,0.11523 0.38281,0.0488 0.54297,-0.42969 0.60547,0.61914 0.31445,0.84571 0.64844,0.32422 0.72461,-0.0156 -0.0254,0.58984 -0.70703,0.54688 -0.0977,1.50195 -0.82422,1.63672 -0.004,0.41016 0.3379,0.46093 0.66992,1.0293 0.15429,0.5957 -0.1875,0.64063 -0.88476,0.9707 -0.29297,0.52539 0.51172,0.91602 0.23633,1.50586 0.4707,1.03125 0.0332,2.12109 0.21875,0.30078 0.90235,0.37305 0.125,1.48047 0.40234,0.46094 0.24414,1.16601 0.48828,1.16407 0.73828,1.03515 0.16016,0.46289 0.0195,0.0137 1.59375,0.85743 0.35742,0.93945 -0.30859,1.30859 -0.0176,0.0781 0.0605,0.61914 0.62695,1.16406 -0.25195,0.41016 -0.71875,0.041 -1.04102,-0.18554 -0.22851,0.24609 -0.13868,0.43359 0.28516,1.85157 -0.39062,0.95703 0.46679,0.64062 1.16602,0.89844 0.15625,0.45508 -0.17969,0.41015 -0.31641,0.22461 -0.91015,-0.1875 -0.67188,-0.14062 -0.3164,0.25195 0.20117,0.32031 0.87695,0.45899 0.24805,0.43359 -0.20703,0.29688 -0.52149,0.0195 -0.3164,0.25 -0.25,1.25195 -0.20703,0.20508 -1.13086,0.26758 -0.47461,0.49609 -0.21094,0.80078 0.12891,0.73047 0.5371,0.93945 0.28321,1.38282 -0.16992,0.75586 -0.0606,0.27734 -0.27148,0.45703 -0.54493,-0.0254 -0.91797,-0.37305 -0.67578,-0.87109 -0.34179,0.25195 -0.22657,0.70508 0.12891,0.70508 1.05273,1.16992 0.51758,0.91992 0.41406,1.6211 0.58399,0.86914 1.5293,0.74414 0.0527,0.0898 0.41406,0.70899 0.38672,0.0957 0.24219,-0.15625 0.41601,-0.82031 0.14063,-1.00196 0.5,-0.47656 0.45117,-0.0644 0.19922,0.41015 -0.45898,1.27539 0.0605,0.7754 -0.16211,0.77734 0.28516,1.28125 0.45117,0.43359 0.69727,0.11914 0.0664,0.48047 -0.75976,1.18555 -0.69922,0.88281 -0.26953,0.0859 -0.22266,-0.27149 -0.11914,-0.13867 -0.38086,0.2461 0.0312,1.9414 -0.31445,0.5 -0.75,0.47657 -0.25586,0.93164 -0.43359,0.70507 -0.77149,0.72461 -0.58594,-0.0976 -0.0898,-0.27149 0.36523,-0.79882 -0.64062,-1.16602 0.24805,-0.33984 0.45117,-0.0215 0.42969,-0.22656 0.27734,-0.88672 -0.24609,-0.41406 -0.38086,-0.0684 -0.65821,0.2207 -1.11328,1.06641 -0.90234,0.0859 -0.49414,0.24804 -0.66406,1.00196 -1.09961,-0.98829 -0.43946,1.53907 0.90235,0.4707 0.33203,0.75586 -0.0488,0.8457 -0.41406,1.04492 -0.63477,0.33789 -0.45508,0.6836 0.0859,0.77539 0.66992,1.07617 0.0898,0.87305 -0.11328,0.13672 -0.43946,0.70312 0.35742,0.75391 -0.0312,1.64062 -0.21093,1.34571 -0.59375,0.84179 -0.48829,1.70703 -0.35742,0.45118 -0.95898,1.4375 -0.50391,0.90625 -0.49609,0.32031 -0.54492,-0.25391 -0.42188,-0.89453 -0.29297,-0.14062 -0.19531,0.0918 -0.56836,0.26953 -0.21484,0.3418 -0.74414,0.7168 -0.72266,0.45898 -0.16406,0.26367 -0.24414,0.40039 -0.5918,0.44922 -0.13867,0.32032 -0.11328,0.5 0.17773,0.48046 0.56055,0.46094 0.0859,0.48047 -0.0937,0.41016 0.56054,0.98437 -0.70703,1.02149 -0.23047,0.86718 0.0879,0.34375 0.91602,1.19141 0.16211,0.50391 0.041,0.11523 -0.25195,0.77539 -0.39062,0.56641 -1.01954,0.99804 0.17383,0.47852 0.60157,0.18945 0.36523,0.11524 1.00781,1.16992 0.11524,0.30078 -0.27735,0.67969 0.0195,0.41015 0.35938,0.68946 0.62891,0.41601 0.19921,0.34375 0.0195,0.45508 -0.22657,0.3418 -1.26757,0.19726 -0.67188,-0.50586 -0.53906,-0.0957 -0.47656,0.22266 -0.33594,0.36523 -0.32617,1.04688 -0.72266,0 -0.69531,-0.43946 -0.628913,0.0899 -0.748047,0.45117 -0.503906,1.02148 0.06445,0.36719 0.808593,0.75781 0.08984,0.11524 -0.162109,0.75 0.15039,0.75586 -0.203125,0.13476 0.40625,0.55078 -0.326172,1.11524 0.175782,0.75586 0.693357,1.09961 -0.410154,0.43164 -0.613281,0.31445 -0.248047,0.38672 0.259765,0.94336 0.0039,0.0195 -0.113282,0.43164 0.892579,1.09961 2.00586,0.53711 0.3125,0.30078 -0.0488,0.63867 -0.39063,1.02539 0.77149,3.3125 -0.3086,1.64063 0.55274,1.9707 -0.1875,0.8418 -0.85352,0.041 -0.22656,0.50196 0.24219,0.57031 0.47265,0.62695 0.3086,0.40625 -0.1582,0.32032 -0.79297,0.0859 -0.38282,0.31641 -0.25,0.61523 0.20313,0.36524 0.44726,0.27539 0.71875,0.0742 0.22461,0.22851 0.28711,0.93946 0.10157,1.66601 0.44726,1.07617 -0.61914,1.57032 -0.32031,0.29687 -0.8086,0.0606 -0.25195,0.18164 -0.16211,0.43555 0.0605,0.14648 0.18359,0.46875 1.03321,1.05859 0.19921,0.63868 -0.32226,0.82226 0.37891,0.98047 -0.61524,0.50195 -0.17773,0.45508 0.21875,0.58985 0.17968,0.10351 0.21094,0.12305 0.45899,1.38281 -0.19141,2.22266 -0.54297,0.76953 -0.3418,1.33203 0.0801,1.27344 0.44336,0.8164 1.49219,1.09571 0.17773,0.57812 -0.13672,0.38672 -1.45507,1.86133 -0.29688,0.72656 0.0449,0.52539 0.42188,0.70898 0.67383,0.53126 2.17968,1.29101 0.26368,0.41602 -0.56055,0.66797 0,0.0156 1.70703,0 2.2793,-0.13672 0.80859,-0.0488 2.25586,-0.30664 1.28711,-0.6289 3.52344,-0.93555 0.85742,-0.33789 0.72851,-0.76953 1.96485,-1.12891 2.5039,-1.66211 0.86915,-0.57812 1.30859,-0.26368 0.51953,-0.31445 0.95898,-1.59375 0.54493,-0.42969 1.42187,-0.49218 4.10547,-0.95313 0.50391,-1.07226 0.84375,-1.25 3.79687,-1.95899 0.23438,-0.17187 1.16992,-0.8711 2.6543,-0.25 2.08398,-0.33203 2.77148,-0.1875 3.79102,-0.49805 1.06055,-0.29101 0.57031,-0.52149 0.3125,-0.15624 0.32031,-0.15626 1.42188,-0.24218 0.75586,-1.5918 0.83789,-0.97656 0.56836,-0.45117 0.76757,-0.2461 0.58985,-0.77148 1.17773,-0.54297 0.38281,-0.38477 -0.21875,-0.41015 1.10743,-0.65821 0.67968,-0.61132 0.25196,-0.54493 0.0684,-0.18164 2.78515,-1.50976 0.65821,-0.15625 0.9707,-0.76758 -0.51172,-0.75977 0.13477,-0.26953 0.16211,-0.32031 0.8164,-0.76758 3.38477,-0.82031 0.27148,0.16016 0.27149,-0.0469 0.54492,-0.33594 6.13672,-1.02929 3.25781,-0.55078 0.33008,-0.0234 4.32812,-0.11914 0.32031,-0.31641 0.78907,-0.0664 0.29492,-0.2246 0.0254,-0.54493 0.16211,-0.27539 3.83594,-1.02343 0.56836,-0.22071 1.98437,-0.21289 0.61328,-0.52148 0.42578,-0.0859 0.82032,-0.56641 0.54101,-0.11132 -0.3125,-0.36524 -0.0195,-0.31836 0.38086,0.1582 0.6543,-0.15039 0.22851,-0.41015 0.38086,-0.0469 0.31836,-0.49609 -0.10937,-0.30078 0.45703,-0.42969 0.8125,-0.3125 0.22851,-0.26953 1.52344,-0.4668 0,-580.175778 -0.0684,-0.0742 -0.8125,-0.44726 -2.17383,-0.44336 -1.53906,-1.76758 -0.46289,-1.9960902 -0.74024,-0.81055 -1.8457,-0.42383 z"
     id="rect8"
     inkscape:connector-curvature="0" />
</svg>
